<svg width="16" height="684" viewBox="0 0 16 684" fill="none" xmlns="http://www.w3.org/2000/svg">
<path d="M7.64648 683.354C7.84174 683.549 8.15832 683.549 8.35358 683.354L11.5356 680.172C11.7308 679.976 11.7308 679.66 11.5356 679.464C11.3403 679.269 11.0237 679.269 10.8285 679.464L8.00003 682.293L5.1716 679.464C4.97634 679.269 4.65976 679.269 4.4645 679.464C4.26923 679.66 4.26923 679.976 4.4645 680.172L7.64648 683.354ZM7.5 5.02206C7.5 5.2982 7.72386 5.52206 8 5.52206C8.27614 5.52206 8.5 5.2982 8.5 5.02206L7.5 5.02206ZM8.5 15.0662C8.5 14.79 8.27614 14.5662 8 14.5662C7.72386 14.5662 7.5 14.79 7.5 15.0662L8.5 15.0662ZM7.5 25.1103C7.5 25.3864 7.72386 25.6103 8 25.6103C8.27614 25.6103 8.5 25.3864 8.5 25.1103L7.5 25.1103ZM8.5 35.1544C8.5 34.8783 8.27614 34.6544 8 34.6544C7.72386 34.6544 7.5 34.8783 7.5 35.1544L8.5 35.1544ZM7.5 45.1985C7.5 45.4747 7.72386 45.6985 8 45.6985C8.27614 45.6985 8.5 45.4747 8.5 45.1985L7.5 45.1985ZM8.5 55.2426C8.5 54.9665 8.27614 54.7426 8 54.7426C7.72386 54.7426 7.5 54.9665 7.5 55.2426L8.5 55.2426ZM7.5 65.2868C7.5 65.5629 7.72386 65.7868 8 65.7868C8.27615 65.7868 8.5 65.5629 8.5 65.2868L7.5 65.2868ZM8.5 75.3309C8.5 75.0547 8.27615 74.8309 8 74.8309C7.72386 74.8309 7.5 75.0547 7.5 75.3309L8.5 75.3309ZM7.5 85.375C7.5 85.6512 7.72386 85.875 8 85.875C8.27615 85.875 8.5 85.6512 8.5 85.375L7.5 85.375ZM8.5 95.4191C8.5 95.143 8.27615 94.9191 8 94.9191C7.72386 94.9191 7.5 95.143 7.5 95.4191L8.5 95.4191ZM7.5 105.463C7.5 105.739 7.72386 105.963 8 105.963C8.27615 105.963 8.5 105.739 8.5 105.463L7.5 105.463ZM8.50001 115.507C8.50001 115.231 8.27615 115.007 8.00001 115.007C7.72386 115.007 7.50001 115.231 7.50001 115.507L8.50001 115.507ZM7.50001 125.551C7.50001 125.828 7.72386 126.051 8.00001 126.051C8.27615 126.051 8.50001 125.828 8.50001 125.551L7.50001 125.551ZM8.50001 135.596C8.50001 135.319 8.27615 135.096 8.00001 135.096C7.72386 135.096 7.50001 135.319 7.50001 135.596L8.50001 135.596ZM7.50001 145.64C7.50001 145.916 7.72386 146.14 8.00001 146.14C8.27615 146.14 8.50001 145.916 8.50001 145.64L7.50001 145.64ZM8.50001 155.684C8.50001 155.408 8.27615 155.184 8.00001 155.184C7.72386 155.184 7.50001 155.408 7.50001 155.684L8.50001 155.684ZM7.50001 165.728C7.50001 166.004 7.72386 166.228 8.00001 166.228C8.27615 166.228 8.50001 166.004 8.50001 165.728L7.50001 165.728ZM8.50001 175.772C8.50001 175.496 8.27615 175.272 8.00001 175.272C7.72387 175.272 7.50001 175.496 7.50001 175.772L8.50001 175.772ZM7.50001 185.816C7.50001 186.092 7.72387 186.316 8.00001 186.316C8.27615 186.316 8.50001 186.092 8.50001 185.816L7.50001 185.816ZM8.50001 195.86C8.50001 195.584 8.27615 195.36 8.00001 195.36C7.72387 195.36 7.50001 195.584 7.50001 195.86L8.50001 195.86ZM7.50001 205.904C7.50001 206.181 7.72387 206.404 8.00001 206.404C8.27615 206.404 8.50001 206.181 8.50001 205.904L7.50001 205.904ZM8.50001 215.949C8.50001 215.672 8.27615 215.449 8.00001 215.449C7.72387 215.449 7.50001 215.672 7.50001 215.949L8.50001 215.949ZM7.50001 225.993C7.50001 226.269 7.72387 226.493 8.00001 226.493C8.27615 226.493 8.50001 226.269 8.50001 225.993L7.50001 225.993ZM8.50001 236.037C8.50001 235.761 8.27615 235.537 8.00001 235.537C7.72387 235.537 7.50001 235.761 7.50001 236.037L8.50001 236.037ZM7.50001 246.081C7.50001 246.357 7.72387 246.581 8.00001 246.581C8.27615 246.581 8.50001 246.357 8.50001 246.081L7.50001 246.081ZM8.50001 256.125C8.50001 255.849 8.27615 255.625 8.00001 255.625C7.72387 255.625 7.50001 255.849 7.50001 256.125L8.50001 256.125ZM7.50001 266.169C7.50001 266.445 7.72387 266.669 8.00001 266.669C8.27615 266.669 8.50001 266.445 8.50001 266.169L7.50001 266.169ZM8.50001 276.213C8.50001 275.937 8.27615 275.713 8.00001 275.713C7.72387 275.713 7.50001 275.937 7.50001 276.213L8.50001 276.213ZM7.50001 286.257C7.50001 286.534 7.72387 286.757 8.00001 286.757C8.27615 286.757 8.50001 286.534 8.50001 286.257L7.50001 286.257ZM8.50001 296.301C8.50001 296.025 8.27616 295.801 8.00001 295.801C7.72387 295.801 7.50001 296.025 7.50001 296.301L8.50001 296.301ZM7.50001 306.346C7.50001 306.622 7.72387 306.846 8.00001 306.846C8.27616 306.846 8.50001 306.622 8.50001 306.346L7.50001 306.346ZM8.50001 316.39C8.50001 316.114 8.27616 315.89 8.00001 315.89C7.72387 315.89 7.50001 316.114 7.50001 316.39L8.50001 316.39ZM7.50001 326.434C7.50001 326.71 7.72387 326.934 8.00001 326.934C8.27616 326.934 8.50001 326.71 8.50001 326.434L7.50001 326.434ZM8.50001 336.478C8.50001 336.202 8.27616 335.978 8.00001 335.978C7.72387 335.978 7.50001 336.202 7.50001 336.478L8.50001 336.478ZM7.50002 346.522C7.50002 346.798 7.72387 347.022 8.00002 347.022C8.27616 347.022 8.50002 346.798 8.50002 346.522L7.50002 346.522ZM8.50002 356.566C8.50002 356.29 8.27616 356.066 8.00002 356.066C7.72387 356.066 7.50002 356.29 7.50002 356.566L8.50002 356.566ZM7.50002 366.61C7.50002 366.887 7.72387 367.11 8.00002 367.11C8.27616 367.11 8.50002 366.887 8.50002 366.61L7.50002 366.61ZM8.50002 376.655C8.50002 376.378 8.27616 376.155 8.00002 376.155C7.72387 376.155 7.50002 376.378 7.50002 376.655L8.50002 376.655ZM7.50002 386.699C7.50002 386.975 7.72387 387.199 8.00002 387.199C8.27616 387.199 8.50002 386.975 8.50002 386.699L7.50002 386.699ZM8.50002 396.743C8.50002 396.467 8.27616 396.243 8.00002 396.243C7.72387 396.243 7.50002 396.467 7.50002 396.743L8.50002 396.743ZM7.50002 406.787C7.50002 407.063 7.72388 407.287 8.00002 407.287C8.27616 407.287 8.50002 407.063 8.50002 406.787L7.50002 406.787ZM8.50002 416.831C8.50002 416.555 8.27616 416.331 8.00002 416.331C7.72388 416.331 7.50002 416.555 7.50002 416.831L8.50002 416.831ZM7.50002 426.875C7.50002 427.151 7.72388 427.375 8.00002 427.375C8.27616 427.375 8.50002 427.151 8.50002 426.875L7.50002 426.875ZM8.50002 436.919C8.50002 436.643 8.27616 436.419 8.00002 436.419C7.72388 436.419 7.50002 436.643 7.50002 436.919L8.50002 436.919ZM7.50002 446.963C7.50002 447.24 7.72388 447.463 8.00002 447.463C8.27616 447.463 8.50002 447.24 8.50002 446.963L7.50002 446.963ZM8.50002 457.008C8.50002 456.731 8.27616 456.508 8.00002 456.508C7.72388 456.508 7.50002 456.731 7.50002 457.008L8.50002 457.008ZM7.50002 467.052C7.50002 467.328 7.72388 467.552 8.00002 467.552C8.27616 467.552 8.50002 467.328 8.50002 467.052L7.50002 467.052ZM8.50002 477.096C8.50002 476.82 8.27616 476.596 8.00002 476.596C7.72388 476.596 7.50002 476.82 7.50002 477.096L8.50002 477.096ZM7.50002 487.14C7.50002 487.416 7.72388 487.64 8.00002 487.64C8.27616 487.64 8.50002 487.416 8.50002 487.14L7.50002 487.14ZM8.50002 497.184C8.50002 496.908 8.27616 496.684 8.00002 496.684C7.72388 496.684 7.50002 496.908 7.50002 497.184L8.50002 497.184ZM7.50002 507.228C7.50002 507.504 7.72388 507.728 8.00002 507.728C8.27616 507.728 8.50002 507.504 8.50002 507.228L7.50002 507.228ZM8.50002 517.272C8.50002 516.996 8.27616 516.772 8.00002 516.772C7.72388 516.772 7.50002 516.996 7.50002 517.272L8.50002 517.272ZM7.50002 527.316C7.50002 527.593 7.72388 527.816 8.00002 527.816C8.27617 527.816 8.50002 527.593 8.50002 527.316L7.50002 527.316ZM8.50002 537.361C8.50002 537.084 8.27617 536.861 8.00002 536.861C7.72388 536.861 7.50002 537.084 7.50002 537.361L8.50002 537.361ZM7.50002 547.405C7.50002 547.681 7.72388 547.905 8.00002 547.905C8.27617 547.905 8.50002 547.681 8.50002 547.405L7.50002 547.405ZM8.50002 557.449C8.50002 557.173 8.27617 556.949 8.00002 556.949C7.72388 556.949 7.50002 557.173 7.50002 557.449L8.50002 557.449ZM7.50002 567.493C7.50002 567.769 7.72388 567.993 8.00002 567.993C8.27617 567.993 8.50002 567.769 8.50002 567.493L7.50002 567.493ZM8.50003 577.537C8.50003 577.261 8.27617 577.037 8.00003 577.037C7.72388 577.037 7.50003 577.261 7.50003 577.537L8.50003 577.537ZM7.50003 587.581C7.50003 587.857 7.72388 588.081 8.00003 588.081C8.27617 588.081 8.50003 587.857 8.50003 587.581L7.50003 587.581ZM8.50003 597.625C8.50003 597.349 8.27617 597.125 8.00003 597.125C7.72388 597.125 7.50003 597.349 7.50003 597.625L8.50003 597.625ZM7.50003 607.669C7.50003 607.946 7.72388 608.169 8.00003 608.169C8.27617 608.169 8.50003 607.946 8.50003 607.669L7.50003 607.669ZM8.50003 617.714C8.50003 617.437 8.27617 617.214 8.00003 617.214C7.72388 617.214 7.50003 617.437 7.50003 617.714L8.50003 617.714ZM7.50003 627.758C7.50003 628.034 7.72389 628.258 8.00003 628.258C8.27617 628.258 8.50003 628.034 8.50003 627.758L7.50003 627.758ZM8.50003 637.802C8.50003 637.526 8.27617 637.302 8.00003 637.302C7.72389 637.302 7.50003 637.526 7.50003 637.802L8.50003 637.802ZM7.50003 647.846C7.50003 648.122 7.72389 648.346 8.00003 648.346C8.27617 648.346 8.50003 648.122 8.50003 647.846L7.50003 647.846ZM8.50003 657.89C8.50003 657.614 8.27617 657.39 8.00003 657.39C7.72389 657.39 7.50003 657.614 7.50003 657.89L8.50003 657.89ZM7.50003 667.934C7.50003 668.21 7.72389 668.434 8.00003 668.434C8.27617 668.434 8.50003 668.21 8.50003 667.934L7.50003 667.934ZM8.50003 677.978C8.50003 677.702 8.27617 677.478 8.00003 677.478C7.72389 677.478 7.50003 677.702 7.50003 677.978L8.50003 677.978ZM7.5 2.18557e-08L7.5 5.02206L8.5 5.02206L8.5 -2.18557e-08L7.5 2.18557e-08ZM7.5 15.0662L7.5 25.1103L8.5 25.1103L8.5 15.0662L7.5 15.0662ZM7.5 35.1544L7.5 45.1985L8.5 45.1985L8.5 35.1544L7.5 35.1544ZM7.5 55.2426L7.5 65.2868L8.5 65.2868L8.5 55.2426L7.5 55.2426ZM7.5 75.3309L7.5 85.375L8.5 85.375L8.5 75.3309L7.5 75.3309ZM7.5 95.4191L7.5 105.463L8.5 105.463L8.5 95.4191L7.5 95.4191ZM7.50001 115.507L7.50001 125.551L8.50001 125.551L8.50001 115.507L7.50001 115.507ZM7.50001 135.596L7.50001 145.64L8.50001 145.64L8.50001 135.596L7.50001 135.596ZM7.50001 155.684L7.50001 165.728L8.50001 165.728L8.50001 155.684L7.50001 155.684ZM7.50001 175.772L7.50001 185.816L8.50001 185.816L8.50001 175.772L7.50001 175.772ZM7.50001 195.86L7.50001 205.904L8.50001 205.904L8.50001 195.86L7.50001 195.86ZM7.50001 215.949L7.50001 225.993L8.50001 225.993L8.50001 215.949L7.50001 215.949ZM7.50001 236.037L7.50001 246.081L8.50001 246.081L8.50001 236.037L7.50001 236.037ZM7.50001 256.125L7.50001 266.169L8.50001 266.169L8.50001 256.125L7.50001 256.125ZM7.50001 276.213L7.50001 286.257L8.50001 286.257L8.50001 276.213L7.50001 276.213ZM7.50001 296.301L7.50001 306.346L8.50001 306.346L8.50001 296.301L7.50001 296.301ZM7.50001 316.39L7.50001 326.434L8.50001 326.434L8.50001 316.39L7.50001 316.39ZM7.50001 336.478L7.50002 346.522L8.50002 346.522L8.50001 336.478L7.50001 336.478ZM7.50002 356.566L7.50002 366.61L8.50002 366.61L8.50002 356.566L7.50002 356.566ZM7.50002 376.655L7.50002 386.699L8.50002 386.699L8.50002 376.655L7.50002 376.655ZM7.50002 396.743L7.50002 406.787L8.50002 406.787L8.50002 396.743L7.50002 396.743ZM7.50002 416.831L7.50002 426.875L8.50002 426.875L8.50002 416.831L7.50002 416.831ZM7.50002 436.919L7.50002 446.963L8.50002 446.963L8.50002 436.919L7.50002 436.919ZM7.50002 457.008L7.50002 467.052L8.50002 467.052L8.50002 457.008L7.50002 457.008ZM7.50002 477.096L7.50002 487.14L8.50002 487.14L8.50002 477.096L7.50002 477.096ZM7.50002 497.184L7.50002 507.228L8.50002 507.228L8.50002 497.184L7.50002 497.184ZM7.50002 517.272L7.50002 527.316L8.50002 527.316L8.50002 517.272L7.50002 517.272ZM7.50002 537.361L7.50002 547.405L8.50002 547.405L8.50002 537.361L7.50002 537.361ZM7.50002 557.449L7.50002 567.493L8.50002 567.493L8.50002 557.449L7.50002 557.449ZM7.50003 577.537L7.50003 587.581L8.50003 587.581L8.50003 577.537L7.50003 577.537ZM7.50003 597.625L7.50003 607.669L8.50003 607.669L8.50003 597.625L7.50003 597.625ZM7.50003 617.714L7.50003 627.758L8.50003 627.758L8.50003 617.714L7.50003 617.714ZM7.50003 637.802L7.50003 647.846L8.50003 647.846L8.50003 637.802L7.50003 637.802ZM7.50003 657.89L7.50003 667.934L8.50003 667.934L8.50003 657.89L7.50003 657.89ZM7.50003 677.978L7.50003 683L8.50003 683L8.50003 677.978L7.50003 677.978ZM7.29292 683.707C7.68345 684.098 8.31661 684.098 8.70714 683.707L15.0711 677.343C15.4616 676.953 15.4616 676.319 15.0711 675.929C14.6806 675.538 14.0474 675.538 13.6569 675.929L8.00003 681.586L2.34318 675.929C1.95265 675.538 1.31949 675.538 0.928962 675.929C0.538437 676.319 0.538437 676.953 0.928962 677.343L7.29292 683.707ZM7 5.02206C7 5.57434 7.44772 6.02206 8 6.02206C8.55229 6.02206 9 5.57434 9 5.02206L7 5.02206ZM9 15.0662C9 14.5139 8.55229 14.0662 8 14.0662C7.44772 14.0662 7 14.5139 7 15.0662L9 15.0662ZM7 25.1103C7 25.6626 7.44772 26.1103 8 26.1103C8.55229 26.1103 9 25.6626 9 25.1103L7 25.1103ZM9 35.1544C9 34.6021 8.55229 34.1544 8 34.1544C7.44772 34.1544 7 34.6021 7 35.1544L9 35.1544ZM7 45.1985C7 45.7508 7.44772 46.1985 8 46.1985C8.55229 46.1985 9 45.7508 9 45.1985L7 45.1985ZM9 55.2426C9 54.6904 8.55229 54.2426 8 54.2426C7.44772 54.2426 7 54.6904 7 55.2426L9 55.2426ZM7 65.2868C7 65.8391 7.44772 66.2868 8 66.2868C8.55229 66.2868 9 65.8391 9 65.2868L7 65.2868ZM9 75.3309C9 74.7786 8.55229 74.3309 8 74.3309C7.44772 74.3309 7 74.7786 7 75.3309L9 75.3309ZM7 85.375C7 85.9273 7.44772 86.375 8 86.375C8.55229 86.375 9 85.9273 9 85.375L7 85.375ZM9 95.4191C9 94.8668 8.55229 94.4191 8 94.4191C7.44772 94.4191 7 94.8668 7 95.4191L9 95.4191ZM7 105.463C7 106.016 7.44772 106.463 8 106.463C8.55229 106.463 9 106.016 9 105.463L7 105.463ZM9.00001 115.507C9.00001 114.955 8.55229 114.507 8.00001 114.507C7.44772 114.507 7.00001 114.955 7.00001 115.507L9.00001 115.507ZM7.00001 125.551C7.00001 126.104 7.44772 126.551 8.00001 126.551C8.55229 126.551 9.00001 126.104 9.00001 125.551L7.00001 125.551ZM9.00001 135.596C9.00001 135.043 8.55229 134.596 8.00001 134.596C7.44772 134.596 7.00001 135.043 7.00001 135.596L9.00001 135.596ZM7.00001 145.64C7.00001 146.192 7.44772 146.64 8.00001 146.64C8.55229 146.64 9.00001 146.192 9.00001 145.64L7.00001 145.64ZM9.00001 155.684C9.00001 155.132 8.55229 154.684 8.00001 154.684C7.44772 154.684 7.00001 155.132 7.00001 155.684L9.00001 155.684ZM7.00001 165.728C7.00001 166.28 7.44772 166.728 8.00001 166.728C8.55229 166.728 9.00001 166.28 9.00001 165.728L7.00001 165.728ZM9.00001 175.772C9.00001 175.22 8.55229 174.772 8.00001 174.772C7.44772 174.772 7.00001 175.22 7.00001 175.772L9.00001 175.772ZM7.00001 185.816C7.00001 186.368 7.44772 186.816 8.00001 186.816C8.55229 186.816 9.00001 186.368 9.00001 185.816L7.00001 185.816ZM9.00001 195.86C9.00001 195.308 8.55229 194.86 8.00001 194.86C7.44772 194.86 7.00001 195.308 7.00001 195.86L9.00001 195.86ZM7.00001 205.904C7.00001 206.457 7.44772 206.904 8.00001 206.904C8.55229 206.904 9.00001 206.457 9.00001 205.904L7.00001 205.904ZM9.00001 215.949C9.00001 215.396 8.55229 214.949 8.00001 214.949C7.44772 214.949 7.00001 215.396 7.00001 215.949L9.00001 215.949ZM7.00001 225.993C7.00001 226.545 7.44773 226.993 8.00001 226.993C8.55229 226.993 9.00001 226.545 9.00001 225.993L7.00001 225.993ZM9.00001 236.037C9.00001 235.484 8.5523 235.037 8.00001 235.037C7.44773 235.037 7.00001 235.484 7.00001 236.037L9.00001 236.037ZM7.00001 246.081C7.00001 246.633 7.44773 247.081 8.00001 247.081C8.5523 247.081 9.00001 246.633 9.00001 246.081L7.00001 246.081ZM9.00001 256.125C9.00001 255.573 8.5523 255.125 8.00001 255.125C7.44773 255.125 7.00001 255.573 7.00001 256.125L9.00001 256.125ZM7.00001 266.169C7.00001 266.721 7.44773 267.169 8.00001 267.169C8.5523 267.169 9.00001 266.721 9.00001 266.169L7.00001 266.169ZM9.00001 276.213C9.00001 275.661 8.5523 275.213 8.00001 275.213C7.44773 275.213 7.00001 275.661 7.00001 276.213L9.00001 276.213ZM7.00001 286.257C7.00001 286.81 7.44773 287.257 8.00001 287.257C8.5523 287.257 9.00001 286.81 9.00001 286.257L7.00001 286.257ZM9.00001 296.301C9.00001 295.749 8.5523 295.301 8.00001 295.301C7.44773 295.301 7.00001 295.749 7.00001 296.301L9.00001 296.301ZM7.00001 306.346C7.00001 306.898 7.44773 307.346 8.00001 307.346C8.5523 307.346 9.00001 306.898 9.00001 306.346L7.00001 306.346ZM9.00001 316.39C9.00001 315.837 8.5523 315.39 8.00001 315.39C7.44773 315.39 7.00001 315.837 7.00001 316.39L9.00001 316.39ZM7.00001 326.434C7.00001 326.986 7.44773 327.434 8.00001 327.434C8.5523 327.434 9.00001 326.986 9.00001 326.434L7.00001 326.434ZM9.00001 336.478C9.00001 335.926 8.5523 335.478 8.00001 335.478C7.44773 335.478 7.00001 335.926 7.00001 336.478L9.00001 336.478ZM7.00002 346.522C7.00002 347.074 7.44773 347.522 8.00002 347.522C8.5523 347.522 9.00002 347.074 9.00002 346.522L7.00002 346.522ZM9.00002 356.566C9.00002 356.014 8.5523 355.566 8.00002 355.566C7.44773 355.566 7.00002 356.014 7.00002 356.566L9.00002 356.566ZM7.00002 366.61C7.00002 367.163 7.44773 367.61 8.00002 367.61C8.5523 367.61 9.00002 367.163 9.00002 366.61L7.00002 366.61ZM9.00002 376.655C9.00002 376.102 8.5523 375.655 8.00002 375.655C7.44773 375.655 7.00002 376.102 7.00002 376.655L9.00002 376.655ZM7.00002 386.699C7.00002 387.251 7.44773 387.699 8.00002 387.699C8.5523 387.699 9.00002 387.251 9.00002 386.699L7.00002 386.699ZM9.00002 396.743C9.00002 396.19 8.5523 395.743 8.00002 395.743C7.44773 395.743 7.00002 396.19 7.00002 396.743L9.00002 396.743ZM7.00002 406.787C7.00002 407.339 7.44773 407.787 8.00002 407.787C8.5523 407.787 9.00002 407.339 9.00002 406.787L7.00002 406.787ZM9.00002 416.831C9.00002 416.279 8.5523 415.831 8.00002 415.831C7.44773 415.831 7.00002 416.279 7.00002 416.831L9.00002 416.831ZM7.00002 426.875C7.00002 427.427 7.44773 427.875 8.00002 427.875C8.5523 427.875 9.00002 427.427 9.00002 426.875L7.00002 426.875ZM9.00002 436.919C9.00002 436.367 8.5523 435.919 8.00002 435.919C7.44773 435.919 7.00002 436.367 7.00002 436.919L9.00002 436.919ZM7.00002 446.963C7.00002 447.516 7.44773 447.963 8.00002 447.963C8.5523 447.963 9.00002 447.516 9.00002 446.963L7.00002 446.963ZM9.00002 457.008C9.00002 456.455 8.5523 456.008 8.00002 456.008C7.44774 456.008 7.00002 456.455 7.00002 457.008L9.00002 457.008ZM7.00002 467.052C7.00002 467.604 7.44774 468.052 8.00002 468.052C8.55231 468.052 9.00002 467.604 9.00002 467.052L7.00002 467.052ZM9.00002 477.096C9.00002 476.544 8.55231 476.096 8.00002 476.096C7.44774 476.096 7.00002 476.544 7.00002 477.096L9.00002 477.096ZM7.00002 487.14C7.00002 487.692 7.44774 488.14 8.00002 488.14C8.55231 488.14 9.00002 487.692 9.00002 487.14L7.00002 487.14ZM9.00002 497.184C9.00002 496.632 8.55231 496.184 8.00002 496.184C7.44774 496.184 7.00002 496.632 7.00002 497.184L9.00002 497.184ZM7.00002 507.228C7.00002 507.78 7.44774 508.228 8.00002 508.228C8.55231 508.228 9.00002 507.78 9.00002 507.228L7.00002 507.228ZM9.00002 517.272C9.00002 516.72 8.55231 516.272 8.00002 516.272C7.44774 516.272 7.00002 516.72 7.00002 517.272L9.00002 517.272ZM7.00002 527.316C7.00002 527.869 7.44774 528.316 8.00002 528.316C8.55231 528.316 9.00002 527.869 9.00002 527.316L7.00002 527.316ZM9.00002 537.361C9.00002 536.808 8.55231 536.361 8.00002 536.361C7.44774 536.361 7.00002 536.808 7.00002 537.361L9.00002 537.361ZM7.00002 547.405C7.00002 547.957 7.44774 548.405 8.00002 548.405C8.55231 548.405 9.00002 547.957 9.00002 547.405L7.00002 547.405ZM9.00002 557.449C9.00002 556.896 8.55231 556.449 8.00002 556.449C7.44774 556.449 7.00002 556.896 7.00002 557.449L9.00002 557.449ZM7.00002 567.493C7.00002 568.045 7.44774 568.493 8.00002 568.493C8.55231 568.493 9.00002 568.045 9.00002 567.493L7.00002 567.493ZM9.00003 577.537C9.00003 576.985 8.55231 576.537 8.00003 576.537C7.44774 576.537 7.00003 576.985 7.00003 577.537L9.00003 577.537ZM7.00003 587.581C7.00003 588.133 7.44774 588.581 8.00003 588.581C8.55231 588.581 9.00003 588.133 9.00003 587.581L7.00003 587.581ZM9.00003 597.625C9.00003 597.073 8.55231 596.625 8.00003 596.625C7.44774 596.625 7.00003 597.073 7.00003 597.625L9.00003 597.625ZM7.00003 607.669C7.00003 608.222 7.44774 608.669 8.00003 608.669C8.55231 608.669 9.00003 608.222 9.00003 607.669L7.00003 607.669ZM9.00003 617.714C9.00003 617.161 8.55231 616.714 8.00003 616.714C7.44774 616.714 7.00003 617.161 7.00003 617.714L9.00003 617.714ZM7.00003 627.758C7.00003 628.31 7.44774 628.758 8.00003 628.758C8.55231 628.758 9.00003 628.31 9.00003 627.758L7.00003 627.758ZM9.00003 637.802C9.00003 637.25 8.55231 636.802 8.00003 636.802C7.44774 636.802 7.00003 637.25 7.00003 637.802L9.00003 637.802ZM7.00003 647.846C7.00003 648.398 7.44774 648.846 8.00003 648.846C8.55231 648.846 9.00003 648.398 9.00003 647.846L7.00003 647.846ZM9.00003 657.89C9.00003 657.338 8.55231 656.89 8.00003 656.89C7.44774 656.89 7.00003 657.338 7.00003 657.89L9.00003 657.89ZM7.00003 667.934C7.00003 668.487 7.44774 668.934 8.00003 668.934C8.55231 668.934 9.00003 668.487 9.00003 667.934L7.00003 667.934ZM9.00003 677.978C9.00003 677.426 8.55231 676.978 8.00003 676.978C7.44774 676.978 7.00003 677.426 7.00003 677.978L9.00003 677.978ZM7 4.37114e-08L7 5.02206L9 5.02206L9 -4.37114e-08L7 4.37114e-08ZM7 15.0662L7 25.1103L9 25.1103L9 15.0662L7 15.0662ZM7 35.1544L7 45.1985L9 45.1985L9 35.1544L7 35.1544ZM7 55.2426L7 65.2868L9 65.2868L9 55.2426L7 55.2426ZM7 75.3309L7 85.375L9 85.375L9 75.3309L7 75.3309ZM7 95.4191L7 105.463L9 105.463L9 95.4191L7 95.4191ZM7.00001 115.507L7.00001 125.551L9.00001 125.551L9.00001 115.507L7.00001 115.507ZM7.00001 135.596L7.00001 145.64L9.00001 145.64L9.00001 135.596L7.00001 135.596ZM7.00001 155.684L7.00001 165.728L9.00001 165.728L9.00001 155.684L7.00001 155.684ZM7.00001 175.772L7.00001 185.816L9.00001 185.816L9.00001 175.772L7.00001 175.772ZM7.00001 195.86L7.00001 205.904L9.00001 205.904L9.00001 195.86L7.00001 195.86ZM7.00001 215.949L7.00001 225.993L9.00001 225.993L9.00001 215.949L7.00001 215.949ZM7.00001 236.037L7.00001 246.081L9.00001 246.081L9.00001 236.037L7.00001 236.037ZM7.00001 256.125L7.00001 266.169L9.00001 266.169L9.00001 256.125L7.00001 256.125ZM7.00001 276.213L7.00001 286.257L9.00001 286.257L9.00001 276.213L7.00001 276.213ZM7.00001 296.301L7.00001 306.346L9.00001 306.346L9.00001 296.301L7.00001 296.301ZM7.00001 316.39L7.00001 326.434L9.00001 326.434L9.00001 316.39L7.00001 316.39ZM7.00001 336.478L7.00002 346.522L9.00002 346.522L9.00001 336.478L7.00001 336.478ZM7.00002 356.566L7.00002 366.61L9.00002 366.61L9.00002 356.566L7.00002 356.566ZM7.00002 376.655L7.00002 386.699L9.00002 386.699L9.00002 376.655L7.00002 376.655ZM7.00002 396.743L7.00002 406.787L9.00002 406.787L9.00002 396.743L7.00002 396.743ZM7.00002 416.831L7.00002 426.875L9.00002 426.875L9.00002 416.831L7.00002 416.831ZM7.00002 436.919L7.00002 446.963L9.00002 446.963L9.00002 436.919L7.00002 436.919ZM7.00002 457.008L7.00002 467.052L9.00002 467.052L9.00002 457.008L7.00002 457.008ZM7.00002 477.096L7.00002 487.14L9.00002 487.14L9.00002 477.096L7.00002 477.096ZM7.00002 497.184L7.00002 507.228L9.00002 507.228L9.00002 497.184L7.00002 497.184ZM7.00002 517.272L7.00002 527.316L9.00002 527.316L9.00002 517.272L7.00002 517.272ZM7.00002 537.361L7.00002 547.405L9.00002 547.405L9.00002 537.361L7.00002 537.361ZM7.00002 557.449L7.00002 567.493L9.00002 567.493L9.00002 557.449L7.00002 557.449ZM7.00003 577.537L7.00003 587.581L9.00003 587.581L9.00003 577.537L7.00003 577.537ZM7.00003 597.625L7.00003 607.669L9.00003 607.669L9.00003 597.625L7.00003 597.625ZM7.00003 617.714L7.00003 627.758L9.00003 627.758L9.00003 617.714L7.00003 617.714ZM7.00003 637.802L7.00003 647.846L9.00003 647.846L9.00003 637.802L7.00003 637.802ZM7.00003 657.89L7.00003 667.934L9.00003 667.934L9.00003 657.89L7.00003 657.89ZM7.00003 677.978L7.00003 683L9.00003 683L9.00003 677.978L7.00003 677.978Z" fill="#EAD1D0"/>
</svg>
