<svg width="99" height="329" viewBox="0 0 99 329" fill="none" xmlns="http://www.w3.org/2000/svg">
<path opacity="0.6" d="M99 328.52L99 329.52L100 329.52L100 328.52L99 328.52ZM86.04 328.52L85.7174 329.467L85.8743 329.52L86.04 329.52L86.04 328.52ZM16.32 304.76L16.6426 303.813L15.32 303.363L15.32 304.76L16.32 304.76ZM16.32 327.44L16.32 328.44L17.32 328.44L17.32 327.44L16.32 327.44ZM1.79999 327.44L0.799991 327.44L0.799991 328.44L1.79999 328.44L1.79999 327.44ZM1.79999 283.64L1.79999 282.64L0.799989 282.64L0.799989 283.64L1.79999 283.64ZM13.92 283.64L14.2435 282.694L14.0862 282.64L13.92 282.64L13.92 283.64ZM84.48 307.76L84.1565 308.706L85.48 309.159L85.48 307.76L84.48 307.76ZM84.48 283.4L84.48 282.4L83.48 282.4L83.48 283.4L84.48 283.4ZM99 283.4L100 283.4L100 282.4L99 282.4L99 283.4ZM99 327.52L86.04 327.52L86.04 329.52L99 329.52L99 327.52ZM86.3626 327.573L16.6426 303.813L15.9974 305.707L85.7174 329.467L86.3626 327.573ZM15.32 304.76L15.32 327.44L17.32 327.44L17.32 304.76L15.32 304.76ZM16.32 326.44L1.79999 326.44L1.79999 328.44L16.32 328.44L16.32 326.44ZM2.79999 327.44L2.79999 283.64L0.799989 283.64L0.799991 327.44L2.79999 327.44ZM1.79999 284.64L13.92 284.64L13.92 282.64L1.79999 282.64L1.79999 284.64ZM13.5965 284.586L84.1565 308.706L84.8035 306.814L14.2435 282.694L13.5965 284.586ZM85.48 307.76L85.48 283.4L83.48 283.4L83.48 307.76L85.48 307.76ZM84.48 284.4L99 284.4L99 282.4L84.48 282.4L84.48 284.4ZM98 283.4L98 328.52L100 328.52L100 283.4L98 283.4ZM96.6 260.863L97.4561 261.38L96.6 260.863ZM15.12 269.983L14.7568 270.915L14.7568 270.915L15.12 269.983ZM4.31999 260.863L5.18326 260.359L5.17606 260.347L4.31999 260.863ZM4.31999 226.183L5.17606 226.7L5.18175 226.691L5.18724 226.681L4.31999 226.183ZM15.12 216.943L15.4832 217.875L15.12 216.943ZM85.56 216.943L85.2021 217.877L85.56 216.943ZM96.6 226.183L95.7397 226.693L95.7439 226.7L96.6 226.183ZM83.52 238.663L82.8395 239.396L82.8395 239.396L83.52 238.663ZM79.2 236.623L79.3789 235.64L79.2 236.623ZM21.6 236.623L21.7789 237.607L21.7871 237.606L21.6 236.623ZM17.28 238.663L17.9604 239.396L17.9604 239.396L17.28 238.663ZM17.28 248.263L17.9604 247.531L17.28 248.263ZM21.6 250.303L21.7871 249.321L21.7789 249.32L21.6 250.303ZM79.2 250.423L79.3351 251.414L79.3571 251.411L79.3789 251.407L79.2 250.423ZM83.52 248.503L84.1708 249.263L84.1859 249.25L84.2004 249.236L83.52 248.503ZM99.44 243.583C99.44 250.761 98.1755 256.319 95.7439 260.347L97.4561 261.38C100.144 256.928 101.44 250.965 101.44 243.583L99.44 243.583ZM95.7439 260.347C93.3036 264.388 89.8027 267.286 85.2021 269.05L85.9179 270.917C90.9173 269.001 94.7764 265.818 97.4561 261.38L95.7439 260.347ZM85.2021 269.05C80.5442 270.835 74.9516 271.743 68.4 271.743L68.4 273.743C75.1284 273.743 80.9758 272.812 85.9179 270.917L85.2021 269.05ZM68.4 271.743L32.28 271.743L32.28 273.743L68.4 273.743L68.4 271.743ZM32.28 271.743C25.646 271.743 20.0564 270.835 15.4832 269.052L14.7568 270.915C19.6236 272.812 25.474 273.743 32.28 273.743L32.28 271.743ZM15.4832 269.052C10.9661 267.291 7.54559 264.398 5.18318 260.359L3.45681 261.368C6.0544 265.809 9.83391 268.996 14.7568 270.915L15.4832 269.052ZM5.17606 260.347C2.74447 256.319 1.47999 250.761 1.47999 243.583L-0.520008 243.583C-0.520008 250.965 0.775513 256.928 3.46393 261.38L5.17606 260.347ZM1.47999 243.583C1.47999 236.323 2.74531 230.726 5.17606 226.7L3.46393 225.667C0.774673 230.121 -0.520008 236.124 -0.520008 243.583L1.47999 243.583ZM5.18724 226.681C7.55156 222.563 10.9719 219.634 15.4832 217.875L14.7568 216.012C9.82813 217.933 6.04842 221.164 3.45274 225.686L5.18724 226.681ZM15.4832 217.875C20.0564 216.092 25.646 215.183 32.28 215.183L32.28 213.183C25.474 213.183 19.6236 214.115 14.7568 216.012L15.4832 217.875ZM32.28 215.183L68.4 215.183L68.4 213.183L32.28 213.183L32.28 215.183ZM68.4 215.183C74.9516 215.183 80.5442 216.092 85.2021 217.877L85.9179 216.01C80.9758 214.115 75.1284 213.183 68.4 213.183L68.4 215.183ZM85.2021 217.877C89.797 219.639 93.2975 222.572 95.7397 226.693L97.4603 225.674C94.7825 221.155 90.923 217.928 85.9179 216.01L85.2021 217.877ZM95.7439 226.7C98.1747 230.726 99.44 236.323 99.44 243.583L101.44 243.583C101.44 236.124 100.145 230.121 97.4561 225.667L95.7439 226.7ZM86.2 243.583C86.2 241.196 85.6034 239.233 84.2004 237.931L82.8395 239.396C83.6765 240.173 84.2 241.491 84.2 243.583L86.2 243.583ZM84.2004 237.931C82.9182 236.74 81.294 235.988 79.3789 235.64L79.0211 237.607C80.626 237.899 81.8818 238.507 82.8395 239.396L84.2004 237.931ZM79.3789 235.64C77.5582 235.309 75.6983 235.143 73.8 235.143L73.8 237.143C75.5817 237.143 77.3218 237.298 79.0211 237.607L79.3789 235.64ZM73.8 235.143L27 235.143L27 237.143L73.8 237.143L73.8 235.143ZM27 235.143C25.0247 235.143 23.1615 235.308 21.4129 235.641L21.7871 237.606C23.3985 237.299 25.1353 237.143 27 237.143L27 235.143ZM21.4211 235.64C19.506 235.988 17.8818 236.74 16.5995 237.931L17.9604 239.396C18.9182 238.507 20.174 237.899 21.7789 237.607L21.4211 235.64ZM16.5995 237.931C15.1965 239.233 14.6 241.196 14.6 243.583L16.6 243.583C16.6 241.491 17.1234 240.173 17.9604 239.396L16.5995 237.931ZM14.6 243.583C14.6 245.837 15.2103 247.706 16.5995 248.996L17.9604 247.531C17.1097 246.741 16.6 245.489 16.6 243.583L14.6 243.583ZM16.5995 248.996C17.8818 250.187 19.506 250.939 21.4211 251.287L21.7789 249.32C20.174 249.028 18.9182 248.42 17.9604 247.531L16.5995 248.996ZM21.4129 251.286C23.1615 251.619 25.0247 251.783 27 251.783L27 249.783C25.1353 249.783 23.3985 249.628 21.7871 249.321L21.4129 251.286ZM27 251.783L73.8 251.783L73.8 249.783L27 249.783L27 251.783ZM73.8 251.783C75.6836 251.783 77.5288 251.661 79.3351 251.414L79.0649 249.433C77.3512 249.666 75.5964 249.783 73.8 249.783L73.8 251.783ZM79.3789 251.407C81.2763 251.062 82.8902 250.36 84.1708 249.263L82.8692 247.744C81.9098 248.567 80.6437 249.145 79.0211 249.44L79.3789 251.407ZM84.2004 249.236C85.6034 247.933 86.2 245.971 86.2 243.583L84.2 243.583C84.2 245.676 83.6765 246.993 82.8395 247.771L84.2004 249.236ZM96.6 188.151L97.4561 188.668L96.6 188.151ZM15.12 197.271L14.7568 198.203L14.7568 198.203L15.12 197.271ZM4.31999 188.151L5.18326 187.646L5.17605 187.634L4.31999 188.151ZM4.31999 153.471L5.17605 153.988L5.18175 153.978L5.18724 153.969L4.31999 153.471ZM15.12 144.231L15.4832 145.163L15.12 144.231ZM85.56 144.231L85.2021 145.165L85.56 144.231ZM96.6 153.471L95.7397 153.981L95.7439 153.988L96.6 153.471ZM83.52 165.951L82.8395 166.684L83.52 165.951ZM79.2 163.911L79.3789 162.927L79.2 163.911ZM21.6 163.911L21.7789 164.895L21.7871 164.893L21.6 163.911ZM17.28 165.951L17.9604 166.684L17.28 165.951ZM17.28 175.551L17.9604 174.818L17.9604 174.818L17.28 175.551ZM21.6 177.591L21.7871 176.609L21.7789 176.607L21.6 177.591ZM79.2 177.711L79.3351 178.702L79.3571 178.699L79.3789 178.695L79.2 177.711ZM83.52 175.791L84.1708 176.55L84.1859 176.537L84.2004 176.524L83.52 175.791ZM99.44 170.871C99.44 178.049 98.1755 183.607 95.7439 187.634L97.4561 188.668C100.144 184.215 101.44 178.253 101.44 170.871L99.44 170.871ZM95.7439 187.634C93.3036 191.676 89.8027 194.574 85.2021 196.337L85.9179 198.205C90.9173 196.288 94.7764 193.106 97.4561 188.668L95.7439 187.634ZM85.2021 196.337C80.5442 198.123 74.9516 199.031 68.4 199.031L68.4 201.031C75.1284 201.031 80.9758 200.099 85.9179 198.205L85.2021 196.337ZM68.4 199.031L32.28 199.031L32.28 201.031L68.4 201.031L68.4 199.031ZM32.28 199.031C25.646 199.031 20.0564 198.122 15.4832 196.339L14.7568 198.203C19.6236 200.1 25.474 201.031 32.28 201.031L32.28 199.031ZM15.4832 196.339C10.9661 194.578 7.54558 191.685 5.18318 187.646L3.4568 188.656C6.0544 193.097 9.8339 196.284 14.7568 198.203L15.4832 196.339ZM5.17605 187.634C2.74447 183.607 1.47999 178.049 1.47999 170.871L-0.520011 170.871C-0.520011 178.253 0.77551 184.215 3.46393 188.668L5.17605 187.634ZM1.47999 170.871C1.47999 163.611 2.74531 158.014 5.17605 153.988L3.46392 152.954C0.77467 157.408 -0.520012 163.411 -0.520011 170.871L1.47999 170.871ZM5.18724 153.969C7.55156 149.85 10.9719 146.921 15.4832 145.163L14.7568 143.299C9.82812 145.221 6.04842 148.452 3.45274 152.973L5.18724 153.969ZM15.4832 145.163C20.0564 143.38 25.6459 142.471 32.28 142.471L32.28 140.471C25.474 140.471 19.6236 141.402 14.7568 143.299L15.4832 145.163ZM32.28 142.471L68.4 142.471L68.4 140.471L32.28 140.471L32.28 142.471ZM68.4 142.471C74.9516 142.471 80.5442 143.379 85.2021 145.165L85.9179 143.297C80.9758 141.403 75.1284 140.471 68.4 140.471L68.4 142.471ZM85.2021 145.165C89.797 146.926 93.2975 149.86 95.7397 153.981L97.4603 152.961C94.7825 148.442 90.923 145.216 85.9179 143.297L85.2021 145.165ZM95.7439 153.988C98.1747 158.014 99.44 163.611 99.44 170.871L101.44 170.871C101.44 163.411 100.145 157.408 97.4561 152.954L95.7439 153.988ZM86.2 170.871C86.2 168.483 85.6034 166.521 84.2004 165.218L82.8395 166.684C83.6765 167.461 84.2 168.778 84.2 170.871L86.2 170.871ZM84.2004 165.218C82.9182 164.027 81.294 163.275 79.3789 162.927L79.0211 164.895C80.626 165.187 81.8818 165.794 82.8395 166.684L84.2004 165.218ZM79.3789 162.927C77.5582 162.596 75.6983 162.431 73.8 162.431L73.8 164.431C75.5817 164.431 77.3218 164.586 79.0211 164.895L79.3789 162.927ZM73.8 162.431L27 162.431L27 164.431L73.8 164.431L73.8 162.431ZM27 162.431C25.0247 162.431 23.1615 162.596 21.4129 162.929L21.7871 164.893C23.3985 164.586 25.1353 164.431 27 164.431L27 162.431ZM21.4211 162.927C19.506 163.275 17.8818 164.027 16.5995 165.218L17.9604 166.684C18.9182 165.794 20.174 165.187 21.7789 164.895L21.4211 162.927ZM16.5995 165.218C15.1965 166.521 14.6 168.483 14.6 170.871L16.6 170.871C16.6 168.778 17.1234 167.461 17.9604 166.684L16.5995 165.218ZM14.6 170.871C14.6 173.125 15.2103 174.994 16.5995 176.284L17.9604 174.818C17.1097 174.028 16.6 172.777 16.6 170.871L14.6 170.871ZM16.5995 176.284C17.8818 177.474 19.506 178.227 21.4211 178.575L21.7789 176.607C20.174 176.315 18.9182 175.707 17.9604 174.818L16.5995 176.284ZM21.4129 178.573C23.1615 178.906 25.0247 179.071 27 179.071L27 177.071C25.1353 177.071 23.3985 176.916 21.7871 176.609L21.4129 178.573ZM27 179.071L73.8 179.071L73.8 177.071L27 177.071L27 179.071ZM73.8 179.071C75.6836 179.071 77.5288 178.948 79.3351 178.702L79.0649 176.72C77.3512 176.954 75.5964 177.071 73.8 177.071L73.8 179.071ZM79.3789 178.695C81.2763 178.35 82.8902 177.648 84.1708 176.55L82.8692 175.032C81.9098 175.854 80.6437 176.432 79.0211 176.727L79.3789 178.695ZM84.2004 176.524C85.6034 175.221 86.2 173.258 86.2 170.871L84.2 170.871C84.2 172.963 83.6765 174.281 82.8395 175.058L84.2004 176.524ZM96.6 115.438L97.4561 115.955L96.6 115.438ZM15.12 124.558L14.7568 125.49L14.7568 125.49L15.12 124.558ZM4.31999 115.438L5.18326 114.934L5.17605 114.922L4.31999 115.438ZM4.31998 80.7584L5.17605 81.2753L5.18175 81.2659L5.18724 81.2563L4.31998 80.7584ZM15.12 71.5184L15.4832 72.4501L15.12 71.5184ZM85.56 71.5184L85.2021 72.4522L85.56 71.5184ZM96.6 80.7584L95.7397 81.2683L95.7439 81.2753L96.6 80.7584ZM83.52 93.2384L82.8395 93.9712L83.52 93.2384ZM79.2 91.1984L79.3789 90.2146L79.2 91.1984ZM21.6 91.1984L21.7789 92.1823L21.7871 92.1808L21.6 91.1984ZM17.28 93.2384L17.9604 93.9712L17.28 93.2384ZM17.28 102.838L17.9604 102.106L17.9604 102.106L17.28 102.838ZM21.6 104.878L21.7871 103.896L21.7789 103.895L21.6 104.878ZM79.2 104.998L79.3351 105.989L79.3571 105.986L79.3789 105.982L79.2 104.998ZM83.52 103.078L84.1708 103.838L84.1859 103.825L84.2004 103.811L83.52 103.078ZM99.44 98.1584C99.44 105.336 98.1755 110.894 95.7439 114.922L97.4561 115.955C100.144 111.503 101.44 105.54 101.44 98.1584L99.44 98.1584ZM95.7439 114.922C93.3036 118.963 89.8027 121.861 85.2021 123.625L85.9179 125.492C90.9173 123.576 94.7764 120.393 97.4561 115.955L95.7439 114.922ZM85.2021 123.625C80.5442 125.41 74.9516 126.318 68.4 126.318L68.4 128.318C75.1284 128.318 80.9758 127.387 85.9179 125.492L85.2021 123.625ZM68.4 126.318L32.28 126.318L32.28 128.318L68.4 128.318L68.4 126.318ZM32.28 126.318C25.6459 126.318 20.0564 125.41 15.4832 123.627L14.7568 125.49C19.6236 127.387 25.474 128.318 32.28 128.318L32.28 126.318ZM15.4832 123.627C10.9661 121.866 7.54558 118.973 5.18317 114.934L3.4568 115.943C6.0544 120.384 9.8339 123.571 14.7568 125.49L15.4832 123.627ZM5.17605 114.922C2.74446 110.894 1.47999 105.336 1.47999 98.1584L-0.520014 98.1584C-0.520014 105.54 0.775507 111.503 3.46392 115.955L5.17605 114.922ZM1.47999 98.1584C1.47999 90.898 2.7453 85.3012 5.17605 81.2753L3.46392 80.2416C0.774666 84.6956 -0.520015 90.6988 -0.520014 98.1584L1.47999 98.1584ZM5.18724 81.2563C7.55156 77.1378 10.9719 74.2088 15.4832 72.4501L14.7568 70.5867C9.82812 72.5081 6.04842 75.739 3.45273 80.2606L5.18724 81.2563ZM15.4832 72.4501C20.0564 70.6674 25.6459 69.7585 32.28 69.7585L32.28 67.7585C25.474 67.7585 19.6236 68.6895 14.7568 70.5867L15.4832 72.4501ZM32.28 69.7585L68.4 69.7584L68.4 67.7584L32.28 67.7585L32.28 69.7585ZM68.4 69.7584C74.9516 69.7584 80.5442 70.6667 85.2021 72.4522L85.9179 70.5847C80.9757 68.6902 75.1284 67.7584 68.4 67.7584L68.4 69.7584ZM85.2021 72.4522C89.797 74.2136 93.2975 77.147 95.7397 81.2682L97.4603 80.2486C94.7825 75.7298 90.923 72.5033 85.9179 70.5847L85.2021 72.4522ZM95.7439 81.2753C98.1747 85.3012 99.44 90.898 99.44 98.1584L101.44 98.1584C101.44 90.6988 100.145 84.6956 97.4561 80.2416L95.7439 81.2753ZM86.2 98.1584C86.2 95.771 85.6034 93.8084 84.2004 92.5056L82.8395 93.9712C83.6765 94.7484 84.2 96.0659 84.2 98.1584L86.2 98.1584ZM84.2004 92.5056C82.9182 91.315 81.294 90.5628 79.3789 90.2146L79.0211 92.1823C80.626 92.4741 81.8818 93.0819 82.8395 93.9712L84.2004 92.5056ZM79.3789 90.2146C77.5582 89.8835 75.6983 89.7184 73.8 89.7184L73.8 91.7184C75.5817 91.7184 77.3218 91.8733 79.0211 92.1823L79.3789 90.2146ZM73.8 89.7184L27 89.7184L27 91.7184L73.8 91.7184L73.8 89.7184ZM27 89.7184C25.0247 89.7184 23.1615 89.883 21.4129 90.2161L21.7871 92.1808C23.3984 91.8739 25.1353 91.7184 27 91.7184L27 89.7184ZM21.4211 90.2146C19.506 90.5628 17.8818 91.315 16.5995 92.5056L17.9604 93.9712C18.9182 93.0819 20.174 92.4741 21.7789 92.1823L21.4211 90.2146ZM16.5995 92.5056C15.1965 93.8084 14.6 95.771 14.6 98.1584L16.6 98.1584C16.6 96.0659 17.1234 94.7484 17.9604 93.9712L16.5995 92.5056ZM14.6 98.1584C14.6 100.412 15.2103 102.281 16.5995 103.571L17.9604 102.106C17.1097 101.316 16.6 100.064 16.6 98.1584L14.6 98.1584ZM16.5995 103.571C17.8818 104.762 19.506 105.514 21.4211 105.862L21.7789 103.895C20.174 103.603 18.9182 102.995 17.9604 102.106L16.5995 103.571ZM21.4129 105.861C23.1615 106.194 25.0247 106.358 27 106.358L27 104.358C25.1353 104.358 23.3985 104.203 21.7871 103.896L21.4129 105.861ZM27 106.358L73.8 106.358L73.8 104.358L27 104.358L27 106.358ZM73.8 106.358C75.6836 106.358 77.5288 106.236 79.3351 105.989L79.0649 104.008C77.3512 104.241 75.5964 104.358 73.8 104.358L73.8 106.358ZM79.3789 105.982C81.2763 105.637 82.8902 104.935 84.1708 103.838L82.8692 102.319C81.9098 103.142 80.6437 103.72 79.0211 104.015L79.3789 105.982ZM84.2004 103.811C85.6034 102.508 86.2 100.546 86.2 98.1584L84.2 98.1584C84.2 100.251 83.6765 101.568 82.8395 102.346L84.2004 103.811ZM99 41.2634L99.1774 42.2476L100 42.0993L100 41.2634L99 41.2634ZM1.79998 58.7834L0.79998 58.7834L0.79998 59.9798L1.97737 59.7676L1.79998 58.7834ZM1.79998 40.4234L1.64374 39.4357L0.799979 39.5692L0.799979 40.4234L1.79998 40.4234ZM67.8 29.9834L67.9562 30.9712L67.9457 28.9941L67.8 29.9834ZM1.79998 20.2634L0.799978 20.2634L0.799978 21.127L1.65428 21.2527L1.79998 20.2634ZM1.79998 0.823424L1.97972 -0.16028L0.799977 -0.375856L0.799977 0.823424L1.79998 0.823424ZM99 18.5834L100 18.5834L100 17.7496L99.1797 17.5997L99 18.5834ZM98.8226 40.2793L1.62259 57.7993L1.97737 59.7676L99.1774 42.2476L98.8226 40.2793ZM2.79998 58.7834L2.79998 40.4234L0.799979 40.4234L0.79998 58.7834L2.79998 58.7834ZM1.95622 41.4112L67.9562 30.9712L67.6437 28.9957L1.64374 39.4357L1.95622 41.4112ZM67.9457 28.9941L1.94568 19.2741L1.65428 21.2527L67.6543 30.9727L67.9457 28.9941ZM2.79998 20.2634L2.79998 0.823424L0.799977 0.823424L0.799978 20.2634L2.79998 20.2634ZM1.62024 1.80716L98.8203 19.5671L99.1797 17.5997L1.97972 -0.16028L1.62024 1.80716ZM98 18.5834L98 41.2634L100 41.2634L100 18.5834L98 18.5834Z" fill="white"/>
</svg>
