<svg width="24" height="18" viewBox="0 0 24 18" fill="none" xmlns="http://www.w3.org/2000/svg">
<path d="M16.3613 0.428571C16.0395 0.428571 15.8193 0.670807 15.8193 1.02484C15.8193 1.37888 16.0395 1.62112 16.3613 1.62112C19.9689 1.62112 22.916 1.73292 22.916 2.70186C22.916 5.04969 17.5131 7.67702 14.3458 9.18634C13.9562 8.8323 13.6853 7.99379 13.6853 7.32298C13.6853 6.65217 13.9054 6.0559 14.2781 5.64596C14.8709 5.04969 15.2096 4.08075 15.2096 3.13043C15.2096 1.99379 14.6676 0.968944 13.7361 0.484472C13.6853 0.428571 13.5667 0.428571 13.5159 0.428571C12.7706 0.354037 11.9407 0.298137 11.1785 0.242236C9.92519 0.111801 8.62103 0 7.41849 0C3.87862 0 2.13409 1.73292 1.25335 3.18634C0.66055 4.19255 0 6.0559 0 7.75155C0 9.37267 0.66055 11.4783 1.15173 13.1553C1.25335 13.4534 1.3211 13.7516 1.42272 13.9938C1.52435 14.3478 1.64291 14.7019 1.69372 15C2.1849 16.677 2.5067 18 3.98024 18C4.79322 18 5.72477 17.0311 7.29993 15.2981C8.35004 14.1615 9.55258 12.913 10.3147 12.4845C10.8567 12.1863 11.5173 11.8882 12.2287 11.5901C12.4996 11.4596 12.6013 11.1056 12.4996 10.8075C12.398 10.5093 12.0593 10.3789 11.7883 10.5093C11.0769 10.8634 10.4164 11.1615 9.87438 11.4037C8.89202 11.8882 7.68948 13.2112 6.55469 14.4596C5.67396 15.3727 4.3698 16.8075 3.98024 16.8075C3.43825 16.8075 3.21807 16.3789 2.7777 14.646C2.67608 14.3478 2.62526 13.9938 2.5067 13.6211C2.40508 13.323 2.33733 13.0248 2.23571 12.7267C1.74453 11.1056 1.15173 9.13043 1.15173 7.75155C1.15173 6.18634 1.81228 4.56522 2.1849 3.91304C3.21807 2.10559 5.01341 1.19255 7.4693 1.19255C8.62103 1.19255 9.92519 1.30435 11.1785 1.43478C11.9407 1.49068 12.7029 1.54658 13.4651 1.62112C13.9562 1.91925 14.2272 2.45963 14.2272 3.13043C14.2272 3.80124 14.0071 4.39752 13.6344 4.80745C13.0416 5.40373 12.7198 6.35404 12.7198 7.32298C12.7198 8.21739 13.1094 9.78261 14.1934 10.3789C14.3627 10.4348 14.5152 10.4348 14.6337 10.3789C19.3253 8.10559 24.0169 5.64596 24.0169 2.70186C24 0.540373 21.2223 0.428571 16.3613 0.428571Z" fill="#961914"/>
</svg>
