<svg width="29" height="31" viewBox="0 0 29 31" fill="none" xmlns="http://www.w3.org/2000/svg">
<path d="M10.5011 13.1303C10.0556 11.5429 8.69788 10.4543 7.12802 10.4543C5.55816 10.4543 4.20044 11.5429 3.75494 13.1303C2.63058 13.8786 1.69715 15.0352 1.0395 16.4639C0.360644 17.9606 0 19.7067 0 21.5436C0 24.0381 0.657644 26.3739 1.86686 28.0747C3.18215 29.9569 5.04901 30.9774 7.12802 30.9774C9.20702 30.9774 11.0739 29.9569 12.3892 28.0747C12.5377 27.8706 12.4952 27.5985 12.3043 27.4397C12.1134 27.281 11.8588 27.3263 11.7103 27.5304C10.5647 29.1632 8.93124 30.0703 7.12802 30.0703C5.3248 30.0703 3.69129 29.1632 2.54572 27.5304C1.44257 25.9657 0.848573 23.834 0.848573 21.5436C0.848573 19.8428 1.16679 18.21 1.80322 16.872C2.41843 15.5341 3.28822 14.4909 4.34894 13.8333C4.45501 13.7652 4.51865 13.6745 4.53987 13.5385C4.83687 12.2685 5.89758 11.3614 7.12802 11.3614C8.35845 11.3614 9.44038 12.2459 9.71617 13.5385C9.73738 13.6519 9.82224 13.7652 9.90709 13.8333C10.9678 14.4909 11.8376 15.5568 12.4528 16.872C13.068 18.2327 13.4075 19.8428 13.4075 21.5436C13.4075 23.063 13.1529 24.5143 12.6437 25.7843C12.5589 26.011 12.6437 26.2832 12.8771 26.3739C13.0892 26.4646 13.3438 26.3739 13.4287 26.1244C13.9802 24.7411 14.256 23.1764 14.256 21.5436C14.256 19.7067 13.8954 17.9379 13.2165 16.4639C12.5801 15.0352 11.6255 13.8786 10.5011 13.1303Z" fill="#961914"/>
<path d="M3.94586 18.7089C3.71251 18.6408 3.47915 18.7769 3.41551 19.0264C3.20336 19.7974 3.09729 20.6591 3.09729 21.5435C3.09729 25.1039 4.79444 27.6664 7.12801 27.6664C9.46159 27.6664 11.1587 25.0812 11.1587 21.5435C11.1587 18.0059 9.46159 15.4207 7.12801 15.4207C6.0673 15.4207 5.09144 15.9649 4.37015 16.9627C4.22165 17.1668 4.26408 17.4389 4.43379 17.5977C4.62472 17.7564 4.87929 17.7111 5.02779 17.507C5.60058 16.7359 6.32187 16.3277 7.12801 16.3277C8.97366 16.3277 10.3102 18.5275 10.3102 21.5435C10.3102 24.5596 8.97366 26.7593 7.12801 26.7593C5.28237 26.7593 3.94586 24.5596 3.94586 21.5435C3.94586 20.7272 4.05194 19.9561 4.24286 19.2758C4.30651 19.0264 4.15801 18.7769 3.94586 18.7089Z" fill="#961914"/>
<path d="M27.1331 2.90271C25.8178 1.02048 23.951 0 21.872 0C19.793 0 17.9049 1.02048 16.6108 2.90271C15.7622 4.10461 15.1682 5.64667 14.9137 7.34748C14.85 7.57425 15.0197 7.8237 15.2531 7.86906C15.4865 7.89173 15.6986 7.73299 15.741 7.48354C15.9744 5.94148 16.5047 4.53548 17.2897 3.44696C18.4353 1.81419 20.0475 0.907096 21.872 0.907096C23.6752 0.907096 25.3087 1.81419 26.4543 3.44696C27.5574 5.0117 28.1514 7.14338 28.1514 9.4338C28.1514 11.1346 27.8332 12.7674 27.1968 14.1053C26.5816 15.4433 25.7118 16.4865 24.6511 17.1441C24.545 17.2121 24.4813 17.3029 24.4601 17.4389C24.1631 18.7089 23.1024 19.6159 21.872 19.6159C20.6415 19.6159 19.5596 18.7315 19.2838 17.4389C19.2414 17.3255 19.1778 17.2348 19.0717 17.1668C18.011 16.5091 17.1412 15.4433 16.526 14.128C15.9107 12.7674 15.5925 11.1346 15.5925 9.4338C15.5925 9.18435 15.4016 8.98025 15.1682 8.98025C14.9349 8.98025 14.744 9.18435 14.744 9.4338C14.744 11.2707 15.1046 13.0395 15.7835 14.5135C16.4411 15.9422 17.3745 17.0988 18.4989 17.8471C18.9444 19.4345 20.3021 20.523 21.872 20.523C23.4418 20.523 24.7996 19.4345 25.2451 17.8471C26.3694 17.0988 27.3241 15.9422 27.9605 14.5135C28.6394 13.0395 29 11.2707 29 9.4338C29 6.93928 28.3211 4.62619 27.1331 2.90271Z" fill="#961914"/>
<path d="M25.1814 11.8603C25.4148 11.9056 25.6482 11.7696 25.6906 11.5201C25.8391 10.8625 25.9027 10.1595 25.9027 9.43381C25.9027 5.87346 24.2056 3.31091 21.872 3.31091C19.5384 3.31091 17.8201 5.89614 17.8201 9.43381C17.8201 12.9715 19.5172 15.5567 21.8508 15.5567C23.1024 15.5567 24.2056 14.8084 24.9693 13.4704C25.0966 13.2436 25.0117 12.9715 24.8208 12.8581C24.6087 12.722 24.3541 12.8127 24.248 13.0168C23.654 14.0827 22.8054 14.6723 21.872 14.6723C20.0264 14.6723 18.6899 12.4726 18.6899 9.45649C18.6899 6.44039 20.0264 4.24069 21.872 4.24069C23.7177 4.24069 25.0542 6.44039 25.0542 9.45649C25.0542 10.1141 24.9905 10.7491 24.8632 11.3387C24.7996 11.5655 24.9481 11.8149 25.1814 11.8603Z" fill="#961914"/>
<path d="M6.21582 23.5844C6.21582 23.335 6.02489 23.1309 5.79153 23.1309C5.55818 23.1309 5.36725 23.335 5.36725 23.5844C5.36725 23.8339 5.55818 24.038 5.79153 24.038C6.02489 24.038 6.21582 23.8339 6.21582 23.5844Z" fill="#961914"/>
<path d="M7.48868 25.3078C7.72301 25.3078 7.91296 25.1048 7.91296 24.8543C7.91296 24.6038 7.72301 24.4008 7.48868 24.4008C7.25435 24.4008 7.06439 24.6038 7.06439 24.8543C7.06439 25.1048 7.25435 25.3078 7.48868 25.3078Z" fill="#961914"/>
<path d="M8.23117 19.2078C8.4655 19.2078 8.65546 19.0047 8.65546 18.7542C8.65546 18.5037 8.4655 18.3007 8.23117 18.3007C7.99684 18.3007 7.80688 18.5037 7.80688 18.7542C7.80688 19.0047 7.99684 19.2078 8.23117 19.2078Z" fill="#961914"/>
<path d="M20.09 7.41546C20.09 7.66491 20.2809 7.86901 20.5143 7.86901C20.7476 7.86901 20.9385 7.66491 20.9385 7.41546C20.9385 7.16601 20.7476 6.96191 20.5143 6.96191C20.2809 6.96191 20.09 7.16601 20.09 7.41546Z" fill="#961914"/>
<path d="M22.2115 6.59911C22.4458 6.59911 22.6357 6.39605 22.6357 6.14556C22.6357 5.89508 22.4458 5.69202 22.2115 5.69202C21.9771 5.69202 21.7872 5.89508 21.7872 6.14556C21.7872 6.39605 21.9771 6.59911 22.2115 6.59911Z" fill="#961914"/>
<path d="M22.9751 12.6992C23.2095 12.6992 23.3994 12.4962 23.3994 12.2457C23.3994 11.9952 23.2095 11.7921 22.9751 11.7921C22.7408 11.7921 22.5508 11.9952 22.5508 12.2457C22.5508 12.4962 22.7408 12.6992 22.9751 12.6992Z" fill="#961914"/>
</svg>
