<svg width="27" height="26" viewBox="0 0 27 26" fill="none" xmlns="http://www.w3.org/2000/svg">
<path d="M26.4447 7.97161C26.8085 7.47339 27 6.90135 27 6.29241C27 4.66856 25.6404 3.35841 23.9553 3.35841C23.3234 3.35841 22.7298 3.54294 22.2128 3.89354C21.6957 3.54294 21.1021 3.35841 20.4702 3.35841C19.8383 3.35841 19.2447 3.54294 18.7277 3.89354C18.2298 3.56139 17.617 3.35841 16.9851 3.35841C16.3532 3.35841 15.7596 3.54294 15.2426 3.89354C14.7255 3.54294 14.1128 3.35841 13.5 3.35841C12.8489 3.35841 12.2553 3.56139 11.7574 3.89354C11.2404 3.54294 10.6468 3.35841 10.0149 3.35841C9.38298 3.35841 8.78936 3.54294 8.27234 3.89354V1.43932L5.78298 0H4.78723V3.89354C3.98298 4.44713 3.48511 5.33286 3.48511 6.29241C3.48511 7.91625 4.84468 9.2264 6.52979 9.2264C7.1617 9.2264 7.75532 9.04187 8.27234 8.69127C8.78936 9.04187 9.38298 9.2264 10.0149 9.2264C10.6468 9.2264 11.2596 9.04187 11.7574 8.69127C12.2553 9.04187 12.8681 9.2264 13.5 9.2264C14.1319 9.2264 14.7255 9.04187 15.2426 8.69127C15.7404 9.04187 16.3532 9.2264 16.9851 9.2264C17.617 9.2264 18.2106 9.04187 18.7277 8.69127C19.2255 9.04187 19.8191 9.2264 20.4511 9.2264C20.6043 9.2264 20.7766 9.20795 20.9298 9.1895C20.9106 9.33712 20.8915 9.48474 20.8915 9.65082C20.8915 9.81689 20.9106 9.96451 20.9298 10.1121C20.1638 10.0014 19.3596 10.1675 18.7085 10.6104C18.2298 10.2598 17.617 10.0752 16.9851 10.0752C16.3532 10.0752 15.7596 10.2598 15.2426 10.6104C14.7255 10.2598 14.1128 10.0752 13.5 10.0752C12.8681 10.0752 12.2745 10.2598 11.7574 10.6104C11.2596 10.2598 10.666 10.0752 10.0149 10.0752C9.38298 10.0752 8.77021 10.2598 8.27234 10.6104C7.75532 10.2598 7.1617 10.0752 6.52979 10.0752C5.89787 10.0752 5.30426 10.2598 4.78723 10.6104C4.27021 10.2598 3.6766 10.0752 3.04468 10.0752C1.35957 10.0752 0 11.3854 0 13.0092C0 13.6366 0.191489 14.2087 0.555319 14.6884C0.191489 15.1682 0 15.7587 0 16.3676C0 16.9766 0.191489 17.5486 0.555319 18.0468C0.210638 18.5082 0 19.0987 0 19.7076C0 21.3314 1.35957 22.6416 3.04468 22.6416C3.6766 22.6416 4.28936 22.4386 4.78723 22.1065C5.30426 22.4571 5.89787 22.6416 6.52979 22.6416C7.1617 22.6416 7.75532 22.4571 8.27234 22.1065C8.78936 22.4571 9.38298 22.6416 10.0149 22.6416C10.6468 22.6416 11.2596 22.4386 11.7574 22.1065C12.2745 22.4571 12.8681 22.6416 13.5 22.6416C14.1319 22.6416 14.7255 22.4571 15.2426 22.1065C15.7404 22.4386 16.3532 22.6416 16.9851 22.6416C17.617 22.6416 18.2106 22.4571 18.7277 22.1065V24.5607L21.217 26H22.2128V22.1065C23.017 21.5529 23.5149 20.6671 23.5149 19.7076C23.5149 18.0837 22.1553 16.7736 20.4702 16.7736C19.8383 16.7736 19.2447 16.9581 18.7277 17.3087C18.2106 16.9581 17.5979 16.7736 16.9851 16.7736C16.3532 16.7736 15.7596 16.9581 15.2426 17.3087C14.7447 16.9766 14.1511 16.7736 13.5 16.7736C12.8681 16.7736 12.2745 16.9581 11.7574 17.3087C11.2404 16.9581 10.6468 16.7736 10.0149 16.7736C9.38298 16.7736 8.78936 16.9581 8.27234 17.3087C7.75532 16.9581 7.1617 16.7736 6.52979 16.7736C6.3766 16.7736 6.20426 16.792 6.05106 16.8105C6.07021 16.6629 6.08936 16.5153 6.08936 16.3492C6.08936 16.2016 6.07021 16.0355 6.05106 15.8879C6.20426 15.9063 6.35745 15.9248 6.52979 15.9248C7.18085 15.9248 7.77447 15.7218 8.27234 15.3896C8.77021 15.7587 9.38298 15.9432 10.0149 15.9432C10.6468 15.9432 11.2404 15.7587 11.7574 15.4081C12.2553 15.7402 12.8681 15.9432 13.5 15.9432C14.1319 15.9432 14.7255 15.7587 15.2426 15.4081C15.7596 15.7587 16.3532 15.9432 16.9851 15.9432C17.617 15.9432 18.2106 15.7587 18.7277 15.4081C19.2255 15.7402 19.8383 15.9432 20.4702 15.9432C21.1213 15.9432 21.7149 15.7402 22.2128 15.4081C22.7298 15.7587 23.3234 15.9432 23.9553 15.9432C25.6404 15.9432 27 14.6331 27 13.0092C27 12.4003 26.8085 11.8282 26.4447 11.33C26.8085 10.8318 27 10.2598 27 9.65082C26.9809 9.02342 26.7894 8.45138 26.4447 7.97161ZM25.5638 11.6068C25.9277 11.9943 26.1191 12.4925 26.1191 13.0092C26.1191 14.1718 25.1426 15.1128 23.9362 15.1128C23.5532 15.1128 23.1702 15.0021 22.8447 14.8361C23.2468 14.3378 23.4957 13.7104 23.4957 13.0277H22.634C22.634 14.1902 21.6574 15.1313 20.4511 15.1313C19.5319 15.1313 18.7085 14.5777 18.4021 13.7289L17.5787 13.9872C17.6936 14.3009 17.8468 14.5777 18.0574 14.8176C17.2723 15.242 16.2191 15.1682 15.5298 14.5593L15.2426 14.3194L14.9362 14.5593C14.5532 14.9099 14.0362 15.0944 13.5 15.0944C12.5809 15.0944 11.7766 14.5408 11.4511 13.7104L10.6277 14.0057C10.7426 14.3009 10.8957 14.5777 11.1064 14.8176C10.4362 15.1682 9.59362 15.1682 8.94255 14.8176C9.32553 14.3194 9.57447 13.692 9.57447 13.0092H8.71277C8.71277 14.1718 7.73617 15.1128 6.52979 15.1128C6.24255 15.1128 5.97447 15.0575 5.72553 14.9652C5.4766 14.5224 5.11277 14.1533 4.67234 13.8765L4.19362 14.5777C4.82553 14.9652 5.20851 15.6295 5.20851 16.3492C5.20851 16.626 5.15106 16.8843 5.05532 17.1242C4.11702 17.6224 3.46596 18.582 3.46596 19.6891H4.32766C4.32766 18.5266 5.30426 17.5855 6.51064 17.5855C7.04681 17.5855 7.56383 17.77 7.96596 18.1207L8.25319 18.379L8.54043 18.1207C9.24894 17.5671 10.3021 17.4748 11.1064 17.8992C10.6851 18.4159 10.4553 19.0433 10.4553 19.7076H11.317C11.317 19.1171 11.5851 18.5451 12.0447 18.1391C12.4468 17.807 12.9638 17.6224 13.5 17.6224C14.7064 17.6224 15.683 18.5635 15.683 19.726H16.5447C16.5447 19.0433 16.2957 18.4159 15.8936 17.9177C16.6787 17.4933 17.7319 17.5671 18.4404 18.1576L18.7277 18.4159L19.0149 18.1576C19.417 17.807 19.934 17.6224 20.4702 17.6224C21.6766 17.6224 22.6532 18.5635 22.6532 19.726C22.6532 20.4642 22.2319 21.1654 21.5617 21.5344L21.3511 21.6636V25.1143L19.6085 24.0994V21.6636L19.3979 21.5344C19.2638 21.4606 19.1489 21.3683 19.034 21.2761L18.7468 21.0177L18.4596 21.2761C18.0574 21.6267 17.5404 21.8112 17.0043 21.8112C16.1043 21.8112 15.2809 21.2761 14.9745 20.4642L14.1511 20.7594C14.266 21.0362 14.4191 21.2945 14.6106 21.5344C13.9404 21.885 13.0979 21.885 12.4468 21.5344C12.6574 21.2761 12.8106 20.9993 12.9255 20.6856L12.0638 20.4088C11.7574 21.2576 10.934 21.8112 10.0149 21.8112C9.47872 21.8112 8.9617 21.6267 8.55957 21.2761L8.27234 21.0177L7.98511 21.2761C7.29574 21.8666 6.24255 21.9588 5.45745 21.516C5.66808 21.2576 5.82128 20.9808 5.93617 20.6671L5.11277 20.3903C4.80638 21.2392 3.98298 21.7928 3.06383 21.7928C1.85745 21.7928 0.880851 20.8517 0.880851 19.6891C0.880851 18.5266 1.85745 17.5855 3.06383 17.5855V16.7736C2.35532 16.7736 1.70426 17.0135 1.18723 17.401C0.995745 17.0873 0.9 16.7182 0.9 16.3492C0.9 15.9801 0.995745 15.6111 1.18723 15.2974C1.58936 15.5926 2.04894 15.7956 2.58511 15.8879L2.71915 15.0575C1.64681 14.9099 0.861702 14.0426 0.861702 13.0092C0.861702 11.8467 1.8383 10.9056 3.04468 10.9056C3.58085 10.9056 4.09787 11.0901 4.5 11.4407L4.78723 11.6991L5.07447 11.4407C5.76383 10.8502 6.81702 10.758 7.60213 11.2009C7.41064 11.4407 7.25745 11.7175 7.14255 12.0312L7.96596 12.308C8.27234 11.4776 9.09574 10.9056 10.0149 10.9056C11.2213 10.9056 12.1979 11.8467 12.1979 13.0092H13.0596C13.0596 12.3265 12.8106 11.6991 12.4085 11.2009C13.1936 10.7764 14.2468 10.8502 14.9362 11.4407L15.2234 11.6991L15.5298 11.4407C15.9319 11.0901 16.4489 10.9056 16.9851 10.9056C18.1723 10.9056 19.1489 11.8467 19.1489 13.0092H20.0106C20.0106 12.3265 19.7617 11.6991 19.3596 11.2009C19.934 10.8872 20.6426 10.8318 21.2745 11.0717C21.3894 11.2562 21.5234 11.4407 21.6766 11.6068L22.3277 11.0532C21.9638 10.6657 21.7723 10.1675 21.7723 9.65082C21.7723 9.37402 21.8298 9.11568 21.9255 8.85735C22.117 8.74663 22.3085 8.61746 22.4809 8.46984L21.9064 7.84244C21.5043 8.19304 20.9872 8.37757 20.4511 8.37757C19.5319 8.37757 18.7085 7.82399 18.4021 6.97516L17.5787 7.2704C17.6936 7.5841 17.8468 7.86089 18.0574 8.10078C17.2723 8.5252 16.2191 8.45138 15.5298 7.86089L15.2426 7.60255L14.9362 7.86089C14.2468 8.45138 13.1936 8.5252 12.4085 8.10078C12.6 7.86089 12.7723 7.5841 12.8872 7.2704L12.0638 6.99361C11.7574 7.82399 10.934 8.39603 10.0149 8.39603C9.47872 8.39603 8.9617 8.2115 8.55957 7.86089L8.27234 7.60255L7.98511 7.86089C7.58298 8.19304 7.06596 8.39603 6.52979 8.39603C5.3234 8.39603 4.34681 7.45493 4.34681 6.29241C4.34681 5.55429 4.76808 4.85309 5.4383 4.48403L5.64894 4.35486V0.904187L7.39149 1.91909V4.35486L7.60213 4.48403C7.73617 4.55784 7.85106 4.65011 7.96596 4.74237L8.27234 4.98226L8.55957 4.72392C9.24894 4.13343 10.3021 4.05962 11.1064 4.48403C10.6851 4.98226 10.4553 5.60965 10.4553 6.29241H11.317C11.317 5.12988 12.2936 4.18879 13.5 4.18879C14.0362 4.18879 14.5532 4.37331 14.9553 4.72392L15.2426 4.98226L15.5298 4.72392C15.9319 4.37331 16.4489 4.18879 16.9851 4.18879C18.1723 4.18879 19.1489 5.12988 19.1489 6.29241H20.0106C20.0106 5.60965 19.7617 4.98226 19.3596 4.48403C20.1447 4.05962 21.1979 4.13343 21.9064 4.72392L22.1936 4.98226L22.4809 4.72392C22.883 4.37331 23.4 4.18879 23.9362 4.18879C25.1426 4.18879 26.1191 5.12988 26.1191 6.29241C26.1191 6.66146 26.0043 7.03052 25.8319 7.34422C25.3149 6.95671 24.6638 6.71682 23.9553 6.71682V7.5472C25.1617 7.5472 26.1383 8.48829 26.1383 9.65082C26.1383 10.1675 25.9468 10.6657 25.583 11.0532L25.3149 11.33L25.5638 11.6068Z" fill="#961914"/>
</svg>
