<svg width="21" height="20" viewBox="0 0 21 20" fill="none" xmlns="http://www.w3.org/2000/svg">
<path d="M20.2442 3.15669C19.7628 2.69814 19.0961 2.43359 18.4109 2.43359C18.4109 1.79867 18.1331 1.18138 17.6516 0.722831C16.6516 -0.22955 15.0035 -0.22955 14.0035 0.722831C13.1331 1.53412 13.022 2.78632 13.6146 3.7387L3.96646 12.9627C2.98498 12.3983 1.63313 12.4865 0.762756 13.3331C-0.237244 14.2854 -0.237244 15.8551 0.762756 16.8075C1.24424 17.266 1.9109 17.5306 2.59609 17.5306C2.59609 18.1832 2.87387 18.8181 3.35535 19.2766C4.35535 20.229 6.0035 20.229 7.0035 19.2766C7.96646 18.3595 8.0035 16.9133 7.18868 15.9609L16.7628 6.80749C17.7813 7.5835 19.2998 7.53059 20.2442 6.63112C21.2442 5.67874 21.2442 4.10908 20.2442 3.15669ZM19.3739 5.8022C18.8553 6.29602 17.9479 6.31366 17.4109 5.8022C17.3368 5.73165 17.2998 5.69638 17.2442 5.62583C17.0405 5.34364 16.6146 5.30837 16.3553 5.55528C16.3368 5.57292 5.89239 15.5553 5.85535 15.6082C5.63313 15.8727 5.67016 16.2608 5.96646 16.4548C6.65165 16.9309 6.72572 17.901 6.13313 18.4477C5.61461 18.9415 4.74424 18.9415 4.22572 18.4477C3.85535 18.095 3.72572 17.513 3.92942 17.0191C4.13313 16.5429 3.63313 16.0667 3.13313 16.2608C2.63313 16.4548 2.02202 16.3313 1.63313 15.9786C0.799793 15.1849 1.35535 13.774 2.61461 13.774C2.98498 13.774 3.33683 13.9151 3.59609 14.1444C3.83683 14.3736 4.22572 14.3736 4.46646 14.1444C15.6146 3.47415 14.9294 4.16199 15.0035 4.02089C15.1146 3.79161 15.0591 3.52706 14.8739 3.3507C14.3553 2.85687 14.3553 2.02795 14.8739 1.53412C15.3924 1.04029 16.2628 1.04029 16.7813 1.53412C17.1702 1.90449 17.2813 2.43359 17.0776 2.90978C17.022 3.03324 17.022 3.19197 17.0776 3.33306C17.2072 3.63288 17.559 3.77398 17.8739 3.66816C18.3739 3.47415 18.985 3.59761 19.3739 3.95035C19.9109 4.47945 19.9109 5.29073 19.3739 5.8022Z" fill="#961914"/>
</svg>
