<svg width="23" height="16" viewBox="0 0 23 16" fill="none" xmlns="http://www.w3.org/2000/svg">
<path d="M21.0394 2.78313C19.9847 2.03614 18.5109 1.43374 16.6449 0.975904C13.0482 0.0963855 8.99177 0 7.40976 0C3.32628 0 0 2.96386 0 6.60241V9.39759C0 13.0361 3.32628 16 7.40976 16C9.28924 16 10.709 15.4699 12.2099 14.9157C13.7648 14.3373 15.3604 13.747 17.6185 13.747C20.5932 13.747 23 11.5904 23 8.95181V6.15663C23 4.84337 22.3374 3.71084 21.0394 2.78313ZM20.6608 9.62651C20.8366 9.78313 21.1205 9.79518 21.2963 9.63855C21.6073 9.38554 21.8642 9.09639 22.0941 8.79518V8.95181C22.0941 11.1566 20.0794 12.9518 17.6049 12.9518C15.1711 12.9518 13.4809 13.5783 11.8583 14.1807C10.4521 14.7108 9.11346 15.2048 7.40976 15.2048C3.96179 15.2048 1.12228 12.8072 0.905938 9.77108C2.16343 11.8193 4.61082 13.2048 7.40976 13.2048C9.28924 13.2048 10.709 12.6747 12.2099 12.1205C13.7648 11.5422 15.3604 10.9518 17.6185 10.9518C17.7807 10.9518 17.9565 10.9398 18.1188 10.9277C18.3621 10.9036 18.5514 10.7108 18.5244 10.494C18.4974 10.2771 18.281 10.1084 18.0376 10.1325C17.9024 10.1446 17.7537 10.1446 17.6185 10.1446C15.1846 10.1446 13.4944 10.7711 11.8718 11.3735C10.4521 11.9157 9.11346 12.4096 7.40976 12.4096C3.81305 12.4096 0.892416 9.80723 0.892416 6.60241C0.892416 3.39759 3.81305 0.795181 7.40976 0.795181C8.95121 0.795181 12.913 0.891566 16.4015 1.74699C20.174 2.6747 22.0941 4.15663 22.0941 6.15663C22.0941 7.25301 21.5802 8.31325 20.6743 9.06024C20.4985 9.21687 20.4985 9.46988 20.6608 9.62651Z" fill="#961914"/>
<path d="M20.2957 9.87953C20.1875 9.6747 19.9171 9.59037 19.7007 9.68675H19.6872C19.4709 9.78314 19.3762 10.0241 19.4844 10.2289C19.5655 10.3735 19.7278 10.4458 19.89 10.4458C19.9576 10.4458 20.0253 10.4337 20.0929 10.4096C20.3092 10.3133 20.4039 10.0843 20.2957 9.87953Z" fill="#961914"/>
<path d="M10.6549 1.71073H10.6279C10.3845 1.69868 10.1682 1.85531 10.1411 2.08423C10.1276 2.30109 10.3034 2.49386 10.5468 2.51796H10.5738C10.5873 2.51796 10.6008 2.51796 10.6144 2.51796C10.8442 2.51796 11.0471 2.36133 11.0606 2.14447C11.0876 1.9276 10.8983 1.73483 10.6549 1.71073Z" fill="#961914"/>
<path d="M20.9177 5.08434C20.4715 4.28916 19.4844 3.61446 17.97 3.06025C16.7531 2.61446 15.4144 2.32531 14.5085 2.16868C13.9677 2.0723 13.3997 1.98796 12.8183 1.91567C12.5749 1.89157 12.3451 2.0482 12.318 2.26507C12.2775 2.48193 12.4532 2.68675 12.6966 2.71085C13.2645 2.78314 13.8054 2.86748 14.3327 2.95181C17.4156 3.49398 19.525 4.3976 20.1199 5.43374C20.2416 5.65061 20.3092 5.89157 20.3092 6.15663C20.3092 7.48193 19.1058 8.55422 17.6184 8.55422C16.1176 8.55422 14.6708 8.77109 13.1699 9.21687C12.5209 9.40965 11.8989 9.63856 11.2904 9.86748C10.8848 10.0121 10.4791 10.1687 10.06 10.3012C9.03232 10.6627 8.23455 10.8072 7.40975 10.8072C4.81363 10.8072 2.69076 8.92772 2.69076 6.60242C2.69076 4.28916 4.8001 2.3976 7.40975 2.3976C7.92356 2.3976 8.43738 2.40965 8.93767 2.42169C9.0188 2.42169 9.11345 2.42169 9.19458 2.43374C9.45149 2.44579 9.65431 2.27712 9.66783 2.0482C9.68135 1.83133 9.49205 1.63856 9.23514 1.62651C9.14049 1.62651 9.05936 1.61447 8.96471 1.61447C8.4509 1.61447 7.92356 1.60242 7.40975 1.60242C4.31333 1.60242 1.79834 3.84338 1.79834 6.60242C1.79834 9.36145 4.31333 11.6024 7.40975 11.6024C8.35625 11.6024 9.23514 11.4337 10.3845 11.0482C10.8036 10.9157 11.2228 10.759 11.6284 10.6024C12.2234 10.3855 12.8318 10.1566 13.4403 9.97591C14.8465 9.55422 16.1987 9.3494 17.6049 9.3494C19.5791 9.3494 21.1881 7.91567 21.1881 6.15663C21.2016 5.75904 21.107 5.40965 20.9177 5.08434Z" fill="#961914"/>
<path d="M7.84247 3.19275C6.58497 3.19275 5.57086 4.02407 5.57086 5.03612C5.57086 6.04817 6.58497 6.86745 7.84247 6.86745C9.09996 6.86745 10.1141 6.03612 10.1141 5.02407C10.1141 4.01203 9.09996 3.19275 7.84247 3.19275ZM7.84247 6.07227C7.08527 6.07227 6.46328 5.60239 6.46328 5.03612C6.46328 4.45781 7.08527 3.99998 7.84247 3.99998C8.59967 3.99998 9.22166 4.45781 9.22166 5.03612C9.22166 5.61443 8.59967 6.07227 7.84247 6.07227Z" fill="#961914"/>
</svg>
