<svg width="24" height="24" viewBox="0 0 24 24" fill="none" xmlns="http://www.w3.org/2000/svg">
<path d="M24 13.5309C24 11.8519 23.1817 10.2293 21.8131 9.22751C21.5309 9.01587 21.1922 8.903 20.8395 8.903C20.4021 8.903 19.9929 9.07231 19.6966 9.36861C19.6402 9.32628 19.5838 9.26984 19.5273 9.22751C19.3157 9.0582 19.0617 8.95944 18.7936 8.93122L18.963 7.05467C18.963 7.01235 18.963 6.97002 18.963 6.91358C18.963 6.08113 18.2857 5.41799 17.4674 5.41799H17.3686C16.5362 5.41799 15.873 6.09524 15.873 6.91358C15.873 6.95591 15.873 6.99824 15.873 7.05467L16.0423 8.94533C15.8025 8.98765 15.5626 9.08642 15.3651 9.24162C15.2945 9.29806 15.2381 9.3545 15.1675 9.41093C15.1393 9.36861 15.097 9.34039 15.0547 9.31217C15.0829 9.17108 15.097 9.02998 15.097 8.903C15.097 8.40917 14.9418 7.94356 14.6596 7.5485C14.9418 7.15344 15.097 6.68783 15.097 6.194C15.097 4.86772 13.9824 3.79541 12.642 3.88007C12.388 3.1746 11.8095 2.62434 11.1041 2.42681C10.6243 1.83422 9.91887 1.5097 9.15697 1.55203C8.83245 0.634921 7.97178 0 6.97002 0C6.12346 0 5.36155 0.451499 4.95238 1.15697C3.93651 1.19929 3.04762 1.91887 2.79365 2.90653C1.59436 3.35802 0.776014 4.51499 0.776014 5.79894C0.776014 6.82892 1.28395 7.78836 2.13051 8.35273C2.00353 8.64903 1.93298 8.97354 1.93298 9.28395C1.93298 9.97531 2.24339 10.6243 2.77954 11.0617C2.73721 11.2451 2.70899 11.4286 2.70899 11.612C2.70899 12.7972 3.59788 13.7848 4.75485 13.9118L5.61552 16.3104C5.17813 16.6349 4.79718 17.0441 4.51499 17.4956L2.48325 17.0441C2.4127 17.03 2.32804 17.0159 2.24339 17.0159C1.65079 17.0159 1.15697 17.4956 1.15697 18.1023V18.2575C1.15697 18.3704 1.17108 18.4691 1.2134 18.5679H1.15697C0.522046 18.582 0 19.1041 0 19.739C0 20.3739 0.522046 20.8959 1.15697 20.8959H1.2134C1.18519 20.9947 1.15697 21.0935 1.15697 21.2063V21.3616C1.15697 21.9541 1.63668 22.448 2.24339 22.448C2.32804 22.448 2.39859 22.4339 2.48325 22.4198L4.51499 21.9683C5.26279 23.1817 6.60317 24 8.12698 24H8.21164C8.42328 24 8.64903 23.9859 8.86067 23.9436L22.1376 21.8977C23.2099 21.7284 24 20.8254 24 19.7249C24 18.8501 23.4921 18.1023 22.7443 17.7496C23.5485 16.7901 24 15.5767 24 14.321V13.5309ZM19.0617 9.84832C20.2187 10.7372 20.9101 12.134 20.9101 13.6155V15.0406C20.9101 15.8307 20.7125 16.6067 20.3457 17.2981L17.2416 16.8183C17.1146 16.254 17.0441 15.6896 17.0441 15.1111V13.5309C17.0441 13.1358 17.0864 12.7548 17.1429 12.3598C17.2416 12.3739 17.3263 12.3739 17.425 12.3739C18.5256 12.3739 19.358 11.8801 19.358 11.2169C19.358 10.8501 19.1041 10.5256 18.6667 10.3139L18.7231 9.69312C18.836 9.72134 18.9489 9.76367 19.0617 9.84832ZM17.3686 6.194H17.4674C17.8624 6.194 18.1869 6.51852 18.1869 6.91358C18.1869 6.9418 18.1869 6.95591 18.1869 6.98413L17.8342 10.8501L18.1305 10.9489C18.4691 11.0617 18.582 11.2028 18.582 11.231C18.582 11.3298 18.1728 11.612 17.425 11.612C16.6772 11.612 16.2681 11.3157 16.2681 11.231C16.2681 11.2028 16.381 11.0617 16.7196 10.9489L17.0159 10.8501L16.649 6.98413C16.649 6.95591 16.649 6.9418 16.649 6.91358C16.649 6.51852 16.9735 6.194 17.3686 6.194ZM16.1129 9.70723L16.1693 10.3139C15.7319 10.5256 15.478 10.8501 15.478 11.2169C15.478 11.6402 15.8307 11.9929 16.3668 12.2046C16.2963 12.642 16.254 13.0935 16.254 13.5309V15.097C16.254 15.6332 16.3104 16.1552 16.4092 16.6772L14.1235 16.3245C13.9965 15.9012 13.9259 15.4638 13.9259 15.0123V13.6155C13.9259 12.1481 14.6314 10.7372 15.8166 9.84832C15.9153 9.77778 16.0141 9.73545 16.1129 9.70723ZM11.9365 16C11.7249 15.4638 11.612 14.9136 11.612 14.3351V13.5309C11.612 12.0917 12.3175 10.709 13.4885 9.84832C13.6296 9.73545 13.8131 9.67901 13.9965 9.67901C14.2363 9.67901 14.448 9.77778 14.6032 9.93298C13.6861 10.9347 13.164 12.2469 13.164 13.6155V15.0406C13.164 15.4356 13.2063 15.8307 13.291 16.2257L11.9365 16ZM11.9647 4.3739L12.0353 4.76896L12.4303 4.6843C12.5573 4.65608 12.6702 4.64198 12.769 4.64198C13.6296 4.64198 14.321 5.33333 14.321 6.194C14.321 6.60317 14.1658 6.98413 13.8836 7.28042L13.6155 7.5485L13.8836 7.81658C14.1658 8.11287 14.321 8.49383 14.321 8.903C14.321 8.91711 14.321 8.93122 14.321 8.93122C14.2081 8.91711 14.1093 8.903 13.9965 8.903C13.6437 8.903 13.3051 9.01587 13.0229 9.22751C12.3175 9.73545 11.7672 10.4268 11.3862 11.1887C11.2451 10.7372 11.0899 10.2998 10.9347 9.87654C11.2875 7.98589 12.6138 6.89947 12.6279 6.88536L12.388 6.57496L12.1481 6.27866C12.0917 6.32099 11.0476 7.18166 10.455 8.71958C9.65079 6.87125 8.88889 5.67196 8.84656 5.60141L8.18342 6.01058C8.19753 6.02469 8.79012 6.95591 9.46737 8.43739C8.32451 8 6.99824 8.12698 6.92769 8.12698L6.99824 8.903C7.57672 8.84656 9.22751 8.87478 10.0035 9.6649C10.2716 10.328 10.5397 11.0617 10.7795 11.8519C9.60847 11.231 8.19753 11.231 8.12698 11.231V11.9929C8.14109 11.9929 9.86243 12.0071 10.8924 12.8113C10.8642 13.0511 10.836 13.291 10.836 13.5309V14.3492C10.836 14.8713 10.9206 15.3792 11.0617 15.873L8.86067 15.5344C8.7478 15.5203 8.63492 15.5062 8.52205 15.4921C7.66138 15.4921 6.97002 14.7866 6.97002 13.9259C6.97002 13.7425 7.01235 13.5591 7.08289 13.3757L7.19577 13.0794L6.91358 12.9242C6.46208 12.642 6.194 12.1481 6.194 11.612C6.194 11.3016 6.27866 11.0053 6.44797 10.7513L6.68783 10.3845L6.30688 10.2011C5.51675 9.806 5.03704 9.01587 5.03704 8.12698C5.03704 7.097 5.7284 6.17989 6.71605 5.89771L6.95591 5.82716L6.99824 5.57319C7.097 4.8254 7.76014 4.26102 8.52205 4.26102C8.53615 4.26102 8.55026 4.26102 8.56437 4.26102C8.59259 4.26102 8.62081 4.27513 8.64903 4.27513L8.93122 4.30335L9.02998 4.03527C9.26984 3.45679 9.83421 3.08995 10.455 3.08995C11.2028 3.08995 11.8377 3.64021 11.9647 4.3739ZM5.30511 13.164H5.03704C4.17637 13.164 3.48501 12.4727 3.48501 11.612C3.48501 11.4286 3.52734 11.2451 3.59788 11.0617L3.71076 10.7654L3.42857 10.5961C2.97707 10.3139 2.70899 9.82011 2.70899 9.28395C2.70899 8.97354 2.79365 8.67725 2.96296 8.42328L3.20282 8.05644L2.82187 7.87302C2.03175 7.47795 1.55203 6.68783 1.55203 5.79894C1.55203 4.76896 2.24339 3.85185 3.23104 3.56966L3.4709 3.49912L3.51323 3.24515C3.6261 2.49735 4.27513 1.91887 5.03704 1.91887C5.05115 1.91887 5.06526 1.91887 5.07936 1.91887C5.10758 1.91887 5.1358 1.91887 5.16402 1.93298L5.44621 1.9612L5.55908 1.70723C5.78483 1.14286 6.34921 0.776014 6.97002 0.776014C7.71781 0.776014 8.35273 1.31217 8.49383 2.05996L8.56437 2.45503L8.95944 2.37037C9.08642 2.34215 9.18519 2.32804 9.29806 2.32804C9.48148 2.32804 9.65079 2.37037 9.806 2.42681C9.22751 2.58201 8.73369 2.96296 8.43739 3.48501C7.40741 3.51323 6.53263 4.24691 6.27866 5.23457C5.07936 5.67196 4.26102 6.82892 4.26102 8.12698C4.26102 9.15697 4.76896 10.1164 5.61552 10.6808C5.48854 10.9771 5.41799 11.2875 5.41799 11.612C5.41799 12.3033 5.72839 12.9524 6.26455 13.3898C6.22222 13.5732 6.194 13.7566 6.194 13.94C6.194 14.6173 6.4903 15.2381 6.95591 15.6614C6.73016 15.7319 6.50441 15.8166 6.29277 15.9153L5.30511 13.164ZM1.93298 18.2716V18.1164C1.93298 17.9189 2.1164 17.7778 2.31393 17.8201L4.16226 18.2293C4.10582 18.3422 4.06349 18.455 4.03527 18.582H2.24339C2.07407 18.582 1.93298 18.4409 1.93298 18.2716ZM0.776014 19.739C0.776014 19.5273 0.945326 19.358 1.15697 19.358H2.24339H3.89418C3.88007 19.485 3.88007 19.612 3.88007 19.739C3.88007 19.866 3.89418 19.9929 3.89418 20.1199H2.24339H1.15697C0.945326 20.1199 0.776014 19.9506 0.776014 19.739ZM2.31393 21.672C2.13051 21.7143 1.93298 21.5591 1.93298 21.3757V21.2205C1.93298 21.0511 2.07407 20.9101 2.24339 20.9101H4.03527C4.06349 21.037 4.10582 21.1499 4.14815 21.2628L2.31393 21.672ZM23.224 19.739C23.224 20.4444 22.716 21.037 22.0247 21.1358L8.74779 23.1817C8.57848 23.2099 8.39506 23.224 8.21164 23.224H8.12698C6.20811 23.224 4.64198 21.6578 4.64198 19.739C4.64198 17.8201 6.20811 16.254 8.12698 16.254H8.21164C8.38095 16.254 8.56437 16.2681 8.74779 16.2963L22.0247 18.3422C22.716 18.4409 23.224 19.0335 23.224 19.739ZM23.224 14.3351C23.224 15.5203 22.7443 16.6772 21.8977 17.5379L21.1217 17.425C21.4744 16.6772 21.6578 15.873 21.6578 15.0406V13.6155C21.6578 12.2469 21.1358 10.9206 20.2328 9.91887C20.388 9.77778 20.5996 9.67901 20.8254 9.67901C21.0088 9.67901 21.1922 9.73545 21.3333 9.84832C22.5044 10.709 23.2099 12.0917 23.2099 13.5309L23.224 14.3351Z" fill="#961914"/>
</svg>
