<svg width="30" height="28" viewBox="0 0 30 28" fill="none" xmlns="http://www.w3.org/2000/svg">
<path d="M28.601 15.166C28.3378 14.5944 28.0183 13.9847 27.6611 13.3749C26.7024 11.7362 25.9693 10.2118 25.3865 8.70649C25.3302 8.55405 25.255 8.40162 25.1986 8.24918C25.0858 8.02052 24.8226 7.9443 24.6158 8.03957C24.3903 8.1539 24.3151 8.42067 24.409 8.63027C24.4654 8.76365 24.5218 8.87798 24.5782 9.01137C25.161 10.5739 25.9317 12.1363 26.9092 13.8132C27.2663 14.4039 27.5671 14.9946 27.8115 15.5281C28.3566 16.6904 28.6198 17.6622 28.6198 18.4053C28.6198 23.0166 24.7662 26.7894 20.0291 26.7894C18.5441 26.7894 17.0966 26.4083 15.7996 25.7033C16.5515 25.0364 17.2094 24.2742 17.7733 23.4167C18.7508 21.8924 19.39 20.1203 19.6156 18.2529C19.9539 15.2994 19.2208 12.6127 17.717 11.3932C16.7771 10.631 15.8184 10.4214 14.8972 10.4976C15.104 10.0022 15.3108 9.50679 15.4988 9.01137C15.8372 8.11579 16.4387 7.3536 17.2282 6.80102C18.0553 6.22937 19.014 5.9245 20.0291 5.9245C20.1607 5.9245 20.2735 5.9245 20.3863 5.94355C21.5518 6.01977 22.642 6.5152 23.4691 7.33455C23.6383 7.50604 23.9203 7.50604 24.0895 7.33455C24.2587 7.16306 24.2587 6.87724 24.0895 6.70574C23.1308 5.75301 21.8525 5.18136 20.4991 5.08609C20.5931 3.86659 21.1382 2.55181 22.4353 2.07544C22.6608 1.99922 22.7736 1.73246 22.6984 1.5038C22.6232 1.27514 22.3601 1.16082 22.1345 1.23703C20.4427 1.86584 19.7283 3.56171 19.6344 5.08609C18.5629 5.14325 17.5854 5.48624 16.7395 6.07694C15.7996 6.7248 15.0852 7.63942 14.6717 8.70649C14.4273 9.35435 14.1265 10.0403 13.807 10.7263C12.9047 10.974 12.0775 11.4504 11.382 11.8315C10.9685 12.0601 10.5737 12.2888 10.2541 12.4031C10.1977 11.66 10.0098 10.8978 9.74659 10.1928C11.852 9.98316 13.807 8.83987 15.0288 7.06778C16.3823 5.14325 16.7395 2.64708 16.0063 0.398626C15.9499 0.208078 15.7808 0.09375 15.5928 0.09375C13.2618 0.150914 11.0625 1.33231 9.70899 3.25684C8.7503 4.64783 8.28034 6.32465 8.37434 7.98241C7.96078 7.56321 7.50963 7.27739 7.05847 7.16306C6.8141 7.08684 6.58852 7.23928 6.51333 7.46793C6.45694 7.69659 6.58852 7.9443 6.8329 8.02052C8.12996 8.38256 9.18265 10.5548 9.37063 12.3841C9.22025 12.3269 9.03227 12.2316 8.78789 12.0982C8.63751 12.022 8.46833 11.9267 8.29914 11.8315C7.28405 11.2598 6.04338 10.5739 4.70872 10.4976C3.71242 10.4405 2.79132 10.7453 1.98301 11.4123C0.873923 12.2888 0.159599 14.0037 0.0280123 16.0807C-0.197564 19.32 0.949116 22.6355 3.11089 24.9602C3.28007 25.1317 3.56204 25.1507 3.73122 24.9792C3.90041 24.8077 3.9192 24.5219 3.75002 24.3504C1.75743 22.1972 0.685943 19.1294 0.892721 16.1569C1.02431 14.3276 1.62584 12.8223 2.52815 12.0982C3.18608 11.5838 3.88161 11.336 4.67112 11.3932C5.79901 11.4504 6.90809 12.0601 7.88559 12.6127C8.07357 12.708 8.24275 12.8033 8.41193 12.8985C8.6939 13.051 8.91948 13.1653 9.12626 13.2415C9.38943 13.3368 9.6338 13.394 9.84058 13.394C10.3857 13.394 11.0249 13.051 11.8144 12.5937C13.3746 11.7362 15.3296 10.631 17.153 12.0982C18.4125 13.1081 19.0328 15.5281 18.732 18.1576C18.5253 19.8726 17.9425 21.5303 17.0402 22.9404C15.9875 24.5791 14.5401 25.8176 12.7355 26.6751C12.3407 26.8657 11.9084 26.7704 11.382 26.4083C10.9497 26.1035 10.4609 25.951 9.95337 25.9129C9.93457 25.9129 9.91577 25.9129 9.89698 25.9129C9.33303 25.8939 8.76909 26.0654 8.29914 26.4083C7.7728 26.7704 7.34044 26.8466 6.94569 26.6751C6.25016 26.3512 5.59223 25.951 4.99069 25.4937C4.80271 25.3413 4.52074 25.3794 4.37036 25.589C4.21997 25.7795 4.25757 26.0654 4.46435 26.2178C5.10348 26.7132 5.8178 27.1515 6.56972 27.4945C6.8329 27.6278 7.09607 27.666 7.35924 27.666C7.92318 27.666 8.43073 27.4182 8.78789 27.1515C9.10746 26.9228 9.48342 26.8085 9.87818 26.8275C9.89698 26.8275 9.91577 26.8275 9.93457 26.8275C10.2729 26.8466 10.6113 26.9609 10.8933 27.1515C11.4384 27.5326 12.2467 27.8946 13.1114 27.4945C13.807 27.1705 14.4649 26.7704 15.0664 26.3321C16.5515 27.2277 18.2621 27.7041 20.0291 27.7041C25.255 27.7041 29.4845 23.5501 29.4845 18.4435C29.4845 17.5479 29.1837 16.4427 28.601 15.166ZM10.0474 9.25908L12.5851 5.61962L14.7093 5.90544C14.5965 6.11505 14.4649 6.3437 14.3145 6.55331C13.3182 8.00147 11.758 8.97326 10.0474 9.25908ZM13.3182 3.02818L12.7355 1.73246C13.337 1.40853 13.9949 1.17987 14.6905 1.06554L13.3182 3.02818ZM15.4048 1.58002C15.6116 2.74236 15.4988 3.94281 15.104 5.04798L13.1678 4.80027L15.4048 1.58002ZM11.9836 2.20883L12.7543 3.88564L12.0399 4.87649L11.4572 5.69584L10.5737 3.56171C10.9685 3.04723 11.4384 2.57087 11.9836 2.20883ZM9.99097 4.47634L10.8557 6.55331L9.33303 8.7446C9.08866 7.29644 9.31424 5.77206 9.99097 4.47634Z" fill="#961914"/>
</svg>
