<svg width="40" height="40" viewBox="0 0 40 40" fill="none" xmlns="http://www.w3.org/2000/svg">
<path d="M14.6967 28.8388C12.9289 34.1421 5.85785 34.1421 5.85785 34.1421C5.85785 34.1421 5.85785 27.071 11.1612 25.3033" stroke="#961914" stroke-width="2" stroke-linecap="round" stroke-linejoin="round"/>
<path d="M30.6066 16.4645L20 27.0711L12.929 20L23.5356 9.39339C27.5518 5.37712 31.5681 5.41629 33.2809 5.67185C33.5447 5.71116 33.7888 5.83415 33.9773 6.02269C34.1659 6.21123 34.2889 6.45535 34.3282 6.71908C34.5837 8.43191 34.6229 12.4482 30.6066 16.4645Z" stroke="#961914" stroke-width="2" stroke-linecap="round" stroke-linejoin="round"/>
<path d="M28.8388 18.2322V28.321C28.8388 28.4852 28.8065 28.6477 28.7437 28.7994C28.6809 28.951 28.5888 29.0888 28.4727 29.2049L23.4193 34.2583C23.2593 34.4183 23.0589 34.5318 22.8395 34.5869C22.62 34.6419 22.3897 34.6363 22.1732 34.5708C21.9567 34.5052 21.762 34.3821 21.6099 34.2146C21.4578 34.0471 21.3541 33.8414 21.3097 33.6196L20 27.071" stroke="#961914" stroke-width="2" stroke-linecap="round" stroke-linejoin="round"/>
<path d="M21.7678 11.1612H11.679C11.5148 11.1612 11.3523 11.1935 11.2006 11.2563C11.0489 11.3192 10.9111 11.4112 10.7951 11.5273L5.74167 16.5807C5.58168 16.7407 5.46812 16.9411 5.41309 17.1606C5.35806 17.38 5.36362 17.6103 5.42918 17.8268C5.49475 18.0434 5.61785 18.2381 5.78537 18.3901C5.9529 18.5422 6.15855 18.6459 6.38041 18.6903L12.929 20" stroke="#961914" stroke-width="2" stroke-linecap="round" stroke-linejoin="round"/>
</svg>
